<?xml version="1.0" encoding="utf-8"?>
<!-- Generator: Adobe Illustrator 19.1.0, SVG Export Plug-In . SVG Version: 6.00 Build 0)  -->
<svg version="1.1" id="Layer_1" xmlns="http://www.w3.org/2000/svg" xmlns:xlink="http://www.w3.org/1999/xlink" x="0px" y="0px"
	 viewBox="0 0 73.5 40.2" style="enable-background:new 0 0 73.5 40.2;" xml:space="preserve">
<style type="text/css">
	.st0{fill:#00CED1;}
	.st1{fill:#1A1A1A;}
	.st2{fill:#D4E8BB;}
	.st3{fill:#273D4E;}
	.st4{fill:#00D563;}
	.st5{fill:#F27470;}
	.st6{fill:#006B32;}
	.st7{fill:#F9BF3B;}
	.st8{fill:#50C8B0;}
	.st9{fill:#5D5D5D;}
	.st10{fill:#EBF0F4;}
	.st11{fill:none;stroke:#BB8F2C;stroke-width:3;stroke-miterlimit:10;}
	.st12{fill:#B55754;}
	.st13{fill:none;stroke:#273D4E;stroke-width:8;stroke-miterlimit:10;}
</style>
<rect x="5321.5" y="-2563.1" class="st0" width="1280" height="800"/>
<g>
	<path class="st1" d="M6476.8-2006c0,15.7-13,28.5-29,28.5H5439.3c-15.9,0-29-12.8-29-28.5c0-15.7,13.1-28.5,29-28.5h1008.4
		C6463.7-2034.5,6476.8-2021.7,6476.8-2006z"/>
</g>
<g>
	<path class="st1" d="M6480.5-1950c0,15.7-13.1,28.5-29,28.5H5443c-16,0-29-12.8-29-28.5s13-28.5,29-28.5h1008.4
		C6467.4-1978.5,6480.5-1965.7,6480.5-1950z"/>
</g>
<g>
	<path class="st0" d="M5812.4-1949c0,15.7-13.1,28.5-29,28.5h-392c-15.9,0-29-12.8-29-28.5s13.1-28.5,29-28.5h392
		C5799.3-1977.5,5812.4-1964.7,5812.4-1949z"/>
</g>
<g>
	<path class="st0" d="M6587.2-1949c0,15.7-13,28.5-29,28.5h-447.1c-16,0-29-12.8-29-28.5s13-28.5,29-28.5h447.1
		C6574.2-1977.5,6587.2-1964.7,6587.2-1949z"/>
</g>
<g>
	<path class="st1" d="M6268.3-1894c0,15.7-13.1,28.5-29,28.5h-744.5c-16,0-29-12.8-29-28.5s13-28.5,29-28.5h744.5
		C6255.3-1922.5,6268.3-1909.7,6268.3-1894z"/>
</g>
<g>
	<path class="st1" d="M6450.3-1894c0,15.7-13.1,28.5-29,28.5h-74c-15.9,0-29-12.8-29-28.5s13.1-28.5,29-28.5h74
		C6437.2-1922.5,6450.3-1909.7,6450.3-1894z"/>
</g>
<rect x="5699.1" y="-2282.5" class="st2" width="108" height="207.1"/>
<rect x="5753.5" y="-2337.2" class="st2" width="53.6" height="55.8"/>
<polygon class="st3" points="5674.7,-2035.6 5516.7,-2035.6 5516.7,-2302.8 5581.4,-2453.6 5674.7,-2453.6 "/>
<polygon class="st3" points="5905.7,-2031.8 6038.4,-2031.8 6038.4,-2197.2 5972,-2290.5 5905.7,-2290.5 "/>
<rect x="6072.1" y="-2372.8" class="st4" width="176.4" height="338.3"/>
<polygon class="st5" points="6435.9,-2034.2 6260.9,-2034.2 6260.9,-2248.6 6304.6,-2309 6392.8,-2309.2 6435.9,-2249.1 "/>
<polygon class="st4" points="6233.9,-2365.1 6219.3,-2365.1 6226.6,-2439.5 6233.9,-2514 6241.1,-2439.5 6248.4,-2365.1 "/>
<rect x="6059.6" y="-2304.1" class="st4" width="201.2" height="269.6"/>
<rect x="6102.5" y="-2372.8" class="st6" width="116.8" height="120.8"/>
<rect x="6119.9" y="-2278.3" class="st4" width="80.8" height="243.8"/>
<rect x="6140.7" y="-2299.9" class="st4" width="40.4" height="265.4"/>
<rect x="5785.1" y="-2214.8" class="st5" width="108" height="103.5"/>
<rect x="5808.2" y="-2238.2" class="st5" width="61.7" height="25.1"/>
<rect x="6623.1" y="-2198.6" class="st3" width="860.2" height="49.6"/>
<polygon class="st7" points="6697.8,-1892.1 6733.7,-1960 6770.7,-1892.1 "/>
<polygon class="st2" points="5775.8,-2333.1 5780.4,-2471.5 5785.2,-2333.1 "/>
<g>
	<circle class="st2" cx="5966.7" cy="-2446.5" r="33.6"/>
	<ellipse class="st2" cx="6022.7" cy="-2460.2" rx="42.8" ry="49.1"/>
	<ellipse class="st2" cx="6081.7" cy="-2445.6" rx="32.6" ry="34.5"/>
	<ellipse class="st2" cx="5932.6" cy="-2429.3" rx="17.8" ry="16.4"/>
	<polygon class="st2" points="5932,-2412.9 6081.7,-2411.1 6019.9,-2460.2 	"/>
</g>
<rect x="5760.4" y="-2189.6" class="st5" width="157.3" height="103.5"/>
<rect x="5699.1" y="-2114" class="st7" width="387.8" height="79.7"/>
<rect x="5632.9" y="-2189.6" class="st4" width="108" height="155.3"/>
<rect x="5456.9" y="-2115.3" class="st7" width="176" height="79.7"/>
<rect x="5465.8" y="-2014" class="st2" width="61.9" height="16"/>
<rect x="5574.9" y="-2014" class="st2" width="61.9" height="16"/>
<rect x="5683.9" y="-2014" class="st2" width="61.9" height="16"/>
<rect x="5793" y="-2014" class="st2" width="61.9" height="16"/>
<rect x="5902" y="-2014" class="st2" width="61.9" height="16"/>
<rect x="6014.8" y="-2014" class="st2" width="61.9" height="16"/>
<rect x="6123.9" y="-2014" class="st2" width="61.9" height="16"/>
<rect x="6232.9" y="-2014" class="st2" width="61.9" height="16"/>
<rect x="6341.9" y="-2014" class="st2" width="61.9" height="16"/>
<rect x="5541" y="-2293.5" class="st8" width="22.9" height="22.9"/>
<rect x="5635.6" y="-2293.5" class="st8" width="22.9" height="22.9"/>
<rect x="5588.3" y="-2293.5" class="st8" width="22.9" height="22.9"/>
<rect x="5541" y="-2257.1" class="st2" width="22.9" height="22.9"/>
<rect x="5635.6" y="-2257.1" class="st8" width="22.9" height="22.9"/>
<rect x="5588.3" y="-2257.1" class="st8" width="22.9" height="22.9"/>
<rect x="5541" y="-2220.7" class="st8" width="22.9" height="22.9"/>
<rect x="5635.6" y="-2220.7" class="st8" width="22.9" height="22.9"/>
<rect x="5588.3" y="-2220.7" class="st2" width="22.9" height="22.9"/>
<rect x="5541" y="-2184.3" class="st8" width="22.9" height="22.9"/>
<rect x="5588.3" y="-2184.3" class="st8" width="22.9" height="22.9"/>
<rect x="5541" y="-2148" class="st2" width="22.9" height="22.9"/>
<rect x="5588.3" y="-2148" class="st8" width="22.9" height="22.9"/>
<rect x="5635.6" y="-2329.9" class="st8" width="22.9" height="22.9"/>
<rect x="5588.3" y="-2329.9" class="st8" width="22.9" height="22.9"/>
<rect x="5635.6" y="-2439" class="st8" width="22.9" height="22.9"/>
<rect x="5635.6" y="-2402.6" class="st8" width="22.9" height="22.9"/>
<rect x="5588.3" y="-2402.6" class="st2" width="22.9" height="22.9"/>
<rect x="5635.6" y="-2366.2" class="st8" width="22.9" height="22.9"/>
<rect x="5588.3" y="-2366.2" class="st8" width="22.9" height="22.9"/>
<rect x="5541" y="-2329.9" class="st2" width="22.9" height="22.9"/>
<rect x="6130.1" y="-2233.3" class="st6" width="7" height="197.7"/>
<rect x="6140.8" y="-2233.3" class="st6" width="7" height="197.7"/>
<rect x="6151.4" y="-2233.3" class="st6" width="7" height="197.7"/>
<rect x="6162.1" y="-2233.3" class="st6" width="7" height="197.7"/>
<rect x="6172.7" y="-2233.3" class="st6" width="7" height="197.7"/>
<rect x="6183.4" y="-2233.3" class="st6" width="7" height="197.7"/>
<rect x="6305.7" y="-2226.9" class="st2" width="7" height="192.4"/>
<rect x="6316.3" y="-2226.9" class="st2" width="7" height="192.4"/>
<rect x="6327" y="-2226.9" class="st2" width="7" height="192.4"/>
<rect x="6337.6" y="-2226.9" class="st2" width="7" height="192.4"/>
<rect x="6348.3" y="-2226.9" class="st2" width="7" height="192.4"/>
<rect x="6358.9" y="-2226.9" class="st2" width="7" height="192.4"/>
<rect x="6369.6" y="-2226.9" class="st2" width="7" height="192.4"/>
<rect x="6380.2" y="-2226.9" class="st2" width="7" height="192.4"/>
<rect x="6263.2" y="-2226.9" class="st2" width="7" height="192.4"/>
<rect x="6273.9" y="-2226.9" class="st2" width="7" height="192.4"/>
<rect x="6284.5" y="-2226.9" class="st2" width="7" height="192.4"/>
<rect x="6295.2" y="-2226.9" class="st2" width="7" height="192.4"/>
<rect x="6390.9" y="-2226.9" class="st2" width="7" height="192.4"/>
<rect x="6401.5" y="-2226.9" class="st2" width="7" height="192.4"/>
<rect x="6412.1" y="-2226.9" class="st2" width="7" height="192.4"/>
<rect x="6422.8" y="-2226.9" class="st2" width="7" height="192.4"/>
<rect x="6238.5" y="-2161.1" class="st3" width="61.7" height="25.1"/>
<rect x="6215.3" y="-2137.8" class="st3" width="108" height="103.5"/>
<rect x="6232.5" y="-2101" class="st8" width="14.4" height="14.4"/>
<rect x="6291.8" y="-2101" class="st8" width="14.4" height="14.4"/>
<rect x="6262.2" y="-2101" class="st8" width="14.4" height="14.4"/>
<rect x="6232.5" y="-2078.2" class="st2" width="14.4" height="14.4"/>
<rect x="6291.8" y="-2078.2" class="st8" width="14.4" height="14.4"/>
<rect x="6262.2" y="-2078.2" class="st8" width="14.4" height="14.4"/>
<rect x="6291.8" y="-2123.9" class="st8" width="14.4" height="14.4"/>
<rect x="6262.2" y="-2123.9" class="st8" width="14.4" height="14.4"/>
<rect x="6232.5" y="-2123.9" class="st2" width="14.4" height="14.4"/>
<rect x="6277" y="-2155" class="st2" width="14.4" height="14.4"/>
<rect x="6247.3" y="-2155" class="st2" width="14.4" height="14.4"/>
<rect x="6232.5" y="-2055.4" class="st2" width="14.4" height="14.4"/>
<rect x="6291.8" y="-2055.4" class="st2" width="14.4" height="14.4"/>
<rect x="6262.2" y="-2055.4" class="st8" width="14.4" height="14.4"/>
<rect x="5760.9" y="-2064.3" class="st3" width="308.6" height="22.9"/>
<rect x="5855.5" y="-2100.6" class="st3" width="22.9" height="22.9"/>
<rect x="5808.2" y="-2100.6" class="st3" width="22.9" height="22.9"/>
<rect x="5760.9" y="-2100.6" class="st3" width="22.9" height="22.9"/>
<rect x="5950" y="-2100.6" class="st3" width="22.9" height="22.9"/>
<rect x="5902.8" y="-2100.6" class="st3" width="22.9" height="22.9"/>
<rect x="5997.3" y="-2100.6" class="st3" width="22.9" height="22.9"/>
<rect x="6044.6" y="-2100.6" class="st3" width="22.9" height="22.9"/>
<rect x="5482.3" y="-2064.3" class="st3" width="117.4" height="22.9"/>
<rect x="5482.3" y="-2100.6" class="st3" width="22.9" height="22.9"/>
<rect x="5529.6" y="-2100.6" class="st3" width="22.9" height="22.9"/>
<rect x="5576.8" y="-2100.6" class="st3" width="22.9" height="22.9"/>
<rect x="5921.5" y="-2252.8" class="st8" width="14.4" height="14.4"/>
<rect x="5951.2" y="-2252.8" class="st8" width="14.4" height="14.4"/>
<rect x="5921.5" y="-2230" class="st2" width="14.4" height="14.4"/>
<rect x="5951.2" y="-2230" class="st8" width="14.4" height="14.4"/>
<rect x="5951.2" y="-2275.6" class="st8" width="14.4" height="14.4"/>
<rect x="5921.5" y="-2275.6" class="st2" width="14.4" height="14.4"/>
<rect x="5921.5" y="-2207.1" class="st2" width="14.4" height="14.4"/>
<rect x="5951.2" y="-2207.1" class="st8" width="14.4" height="14.4"/>
<rect x="5921.5" y="-2183.7" class="st8" width="14.4" height="14.4"/>
<rect x="5951.2" y="-2183.7" class="st8" width="14.4" height="14.4"/>
<rect x="5921.5" y="-2160.8" class="st2" width="14.4" height="14.4"/>
<rect x="5951.2" y="-2160.8" class="st8" width="14.4" height="14.4"/>
<rect x="5921.5" y="-2138" class="st2" width="14.4" height="14.4"/>
<rect x="5951.2" y="-2138" class="st8" width="14.4" height="14.4"/>
<rect x="5980.9" y="-2207.1" class="st8" width="39.3" height="14.4"/>
<rect x="5980.9" y="-2183.7" class="st2" width="39.3" height="14.4"/>
<rect x="5980.9" y="-2230" class="st8" width="14.4" height="14.4"/>
<rect x="5980.9" y="-2160.8" class="st8" width="39.3" height="14.4"/>
<rect x="5980.9" y="-2138" class="st8" width="39.3" height="14.4"/>
<rect x="5699.1" y="-2102.8" class="st2" width="22.9" height="22.9"/>
<rect x="5651.8" y="-2102.8" class="st5" width="22.9" height="22.9"/>
<rect x="5699.1" y="-2066.4" class="st5" width="22.9" height="22.9"/>
<rect x="5651.8" y="-2066.4" class="st2" width="22.9" height="22.9"/>
<rect x="5699.1" y="-2139.1" class="st5" width="22.9" height="22.9"/>
<rect x="5651.8" y="-2139.1" class="st2" width="22.9" height="22.9"/>
<rect x="5699.1" y="-2175.5" class="st2" width="22.9" height="22.9"/>
<rect x="5651.8" y="-2175.5" class="st2" width="22.9" height="22.9"/>
<rect x="5773.4" y="-2125.9" class="st2" width="131.3" height="7"/>
<rect x="5773.4" y="-2136.5" class="st2" width="131.3" height="7"/>
<rect x="5773.4" y="-2147.1" class="st2" width="131.3" height="7"/>
<rect x="5773.4" y="-2157.8" class="st2" width="131.3" height="7"/>
<rect x="5773.4" y="-2168.4" class="st2" width="131.3" height="7"/>
<rect x="5773.4" y="-2179.1" class="st2" width="131.3" height="7"/>
<circle class="st7" cx="6435.7" cy="-2453.7" r="50"/>
<polygon class="st4" points="6086.8,-2365.1 6072.3,-2365.1 6079.6,-2439.5 6086.8,-2514 6094.1,-2439.5 6101.4,-2365.1 "/>
<rect x="5323.5" y="-1735.1" class="st0" width="1280" height="800"/>
<g>
	<path class="st1" d="M6478.8-1178c0,15.7-13,28.5-29,28.5H5441.3c-15.9,0-29-12.8-29-28.5c0-15.7,13.1-28.5,29-28.5h1008.4
		C6465.7-1206.5,6478.8-1193.7,6478.8-1178z"/>
</g>
<g>
	<path class="st1" d="M6482.5-1122c0,15.7-13.1,28.5-29,28.5H5445c-16,0-29-12.8-29-28.5s13-28.5,29-28.5h1008.4
		C6469.4-1150.5,6482.5-1137.7,6482.5-1122z"/>
</g>
<g>
	<path class="st0" d="M5814.4-1121c0,15.7-13.1,28.5-29,28.5h-392c-15.9,0-29-12.8-29-28.5s13.1-28.5,29-28.5h392
		C5801.3-1149.5,5814.4-1136.7,5814.4-1121z"/>
</g>
<g>
	<path class="st0" d="M6589.2-1121c0,15.7-13,28.5-29,28.5h-447.1c-16,0-29-12.8-29-28.5s13-28.5,29-28.5h447.1
		C6576.2-1149.5,6589.2-1136.7,6589.2-1121z"/>
</g>
<g>
	<path class="st1" d="M6270.3-1066c0,15.7-13.1,28.5-29,28.5h-744.5c-16,0-29-12.8-29-28.5s13-28.5,29-28.5h744.5
		C6257.3-1094.5,6270.3-1081.7,6270.3-1066z"/>
</g>
<g>
	<path class="st1" d="M6452.3-1066c0,15.7-13.1,28.5-29,28.5h-74c-15.9,0-29-12.8-29-28.5s13.1-28.5,29-28.5h74
		C6439.2-1094.5,6452.3-1081.7,6452.3-1066z"/>
</g>
<rect x="5701.1" y="-1454.5" class="st2" width="108" height="207.1"/>
<rect x="5755.5" y="-1509.2" class="st2" width="53.6" height="55.8"/>
<polygon class="st3" points="5676.7,-1207.6 5518.7,-1207.6 5518.7,-1474.8 5583.4,-1625.6 5676.7,-1625.6 "/>
<polygon class="st3" points="5907.7,-1203.8 6040.4,-1203.8 6040.4,-1369.2 5974,-1462.5 5907.7,-1462.5 "/>
<rect x="6074.1" y="-1544.8" class="st6" width="176.4" height="338.3"/>
<polygon class="st5" points="6437.9,-1206.2 6262.9,-1206.2 6262.9,-1420.6 6306.6,-1481 6394.8,-1481.2 6437.9,-1421.1 "/>
<polygon class="st6" points="6235.9,-1537.1 6221.3,-1537.1 6228.6,-1611.5 6235.9,-1686 6243.1,-1611.5 6250.4,-1537.1 "/>
<rect x="6061.6" y="-1476.1" class="st6" width="201.2" height="269.6"/>
<rect x="6104.5" y="-1544.8" class="st4" width="116.8" height="120.8"/>
<rect x="6121.9" y="-1450.3" class="st6" width="80.8" height="243.8"/>
<rect x="6142.7" y="-1471.9" class="st6" width="40.4" height="265.4"/>
<rect x="5787.1" y="-1386.8" class="st5" width="108" height="103.5"/>
<rect x="5810.2" y="-1410.2" class="st5" width="61.7" height="25.1"/>
<polygon class="st2" points="5777.8,-1505.1 5782.4,-1643.5 5787.2,-1505.1 "/>
<g>
	<circle class="st2" cx="5968.7" cy="-1618.5" r="33.6"/>
	<ellipse class="st2" cx="6024.7" cy="-1632.2" rx="42.8" ry="49.1"/>
	<ellipse class="st2" cx="6083.7" cy="-1617.6" rx="32.6" ry="34.5"/>
	<ellipse class="st2" cx="5934.6" cy="-1601.3" rx="17.8" ry="16.4"/>
	<polygon class="st2" points="5934,-1584.9 6083.7,-1583.1 6021.9,-1632.2 	"/>
</g>
<rect x="5762.4" y="-1361.6" class="st5" width="157.3" height="103.5"/>
<rect x="5701.1" y="-1286" class="st7" width="387.8" height="79.7"/>
<rect x="5634.9" y="-1361.6" class="st4" width="108" height="155.3"/>
<rect x="5458.9" y="-1287.3" class="st7" width="176" height="79.7"/>
<rect x="5467.8" y="-1186" class="st2" width="61.9" height="16"/>
<rect x="5576.9" y="-1186" class="st2" width="61.9" height="16"/>
<rect x="5685.9" y="-1186" class="st2" width="61.9" height="16"/>
<rect x="5795" y="-1186" class="st2" width="61.9" height="16"/>
<rect x="5904" y="-1186" class="st2" width="61.9" height="16"/>
<rect x="6016.8" y="-1186" class="st2" width="61.9" height="16"/>
<rect x="6125.9" y="-1186" class="st2" width="61.9" height="16"/>
<rect x="6234.9" y="-1186" class="st2" width="61.9" height="16"/>
<rect x="6343.9" y="-1186" class="st2" width="61.9" height="16"/>
<rect x="5543" y="-1465.5" class="st8" width="22.9" height="22.9"/>
<rect x="5637.6" y="-1465.5" class="st8" width="22.9" height="22.9"/>
<rect x="5590.3" y="-1465.5" class="st8" width="22.9" height="22.9"/>
<rect x="5543" y="-1429.1" class="st2" width="22.9" height="22.9"/>
<rect x="5637.6" y="-1429.1" class="st8" width="22.9" height="22.9"/>
<rect x="5590.3" y="-1429.1" class="st8" width="22.9" height="22.9"/>
<rect x="5543" y="-1392.7" class="st8" width="22.9" height="22.9"/>
<rect x="5637.6" y="-1392.7" class="st8" width="22.9" height="22.9"/>
<rect x="5590.3" y="-1392.7" class="st2" width="22.9" height="22.9"/>
<rect x="5543" y="-1356.3" class="st8" width="22.9" height="22.9"/>
<rect x="5590.3" y="-1356.3" class="st8" width="22.9" height="22.9"/>
<rect x="5543" y="-1320" class="st2" width="22.9" height="22.9"/>
<rect x="5590.3" y="-1320" class="st8" width="22.9" height="22.9"/>
<rect x="5637.6" y="-1501.9" class="st8" width="22.9" height="22.9"/>
<rect x="5590.3" y="-1501.9" class="st8" width="22.9" height="22.9"/>
<rect x="5637.6" y="-1611" class="st8" width="22.9" height="22.9"/>
<rect x="5637.6" y="-1574.6" class="st8" width="22.9" height="22.9"/>
<rect x="5590.3" y="-1574.6" class="st2" width="22.9" height="22.9"/>
<rect x="5637.6" y="-1538.2" class="st8" width="22.9" height="22.9"/>
<rect x="5590.3" y="-1538.2" class="st8" width="22.9" height="22.9"/>
<rect x="5543" y="-1501.9" class="st2" width="22.9" height="22.9"/>
<rect x="6132.1" y="-1405.3" class="st4" width="7" height="197.7"/>
<rect x="6142.8" y="-1405.3" class="st4" width="7" height="197.7"/>
<rect x="6153.4" y="-1405.3" class="st4" width="7" height="197.7"/>
<rect x="6164.1" y="-1405.3" class="st4" width="7" height="197.7"/>
<rect x="6174.7" y="-1405.3" class="st4" width="7" height="197.7"/>
<rect x="6185.4" y="-1405.3" class="st4" width="7" height="197.7"/>
<rect x="6307.7" y="-1398.9" class="st2" width="7" height="192.4"/>
<rect x="6318.3" y="-1398.9" class="st2" width="7" height="192.4"/>
<rect x="6329" y="-1398.9" class="st2" width="7" height="192.4"/>
<rect x="6339.6" y="-1398.9" class="st2" width="7" height="192.4"/>
<rect x="6350.3" y="-1398.9" class="st2" width="7" height="192.4"/>
<rect x="6360.9" y="-1398.9" class="st2" width="7" height="192.4"/>
<rect x="6371.6" y="-1398.9" class="st2" width="7" height="192.4"/>
<rect x="6382.2" y="-1398.9" class="st2" width="7" height="192.4"/>
<rect x="6265.2" y="-1398.9" class="st2" width="7" height="192.4"/>
<rect x="6275.9" y="-1398.9" class="st2" width="7" height="192.4"/>
<rect x="6286.5" y="-1398.9" class="st2" width="7" height="192.4"/>
<rect x="6297.2" y="-1398.9" class="st2" width="7" height="192.4"/>
<rect x="6392.9" y="-1398.9" class="st2" width="7" height="192.4"/>
<rect x="6403.5" y="-1398.9" class="st2" width="7" height="192.4"/>
<rect x="6414.1" y="-1398.9" class="st2" width="7" height="192.4"/>
<rect x="6424.8" y="-1398.9" class="st2" width="7" height="192.4"/>
<rect x="6240.5" y="-1333.1" class="st3" width="61.7" height="25.1"/>
<rect x="6217.3" y="-1309.8" class="st3" width="108" height="103.5"/>
<rect x="6234.5" y="-1273" class="st8" width="14.4" height="14.4"/>
<rect x="6293.8" y="-1273" class="st8" width="14.4" height="14.4"/>
<rect x="6264.2" y="-1273" class="st8" width="14.4" height="14.4"/>
<rect x="6234.5" y="-1250.2" class="st2" width="14.4" height="14.4"/>
<rect x="6293.8" y="-1250.2" class="st8" width="14.4" height="14.4"/>
<rect x="6264.2" y="-1250.2" class="st8" width="14.4" height="14.4"/>
<rect x="6293.8" y="-1295.9" class="st8" width="14.4" height="14.4"/>
<rect x="6264.2" y="-1295.9" class="st8" width="14.4" height="14.4"/>
<rect x="6234.5" y="-1295.9" class="st2" width="14.4" height="14.4"/>
<rect x="6279" y="-1327" class="st2" width="14.4" height="14.4"/>
<rect x="6249.3" y="-1327" class="st2" width="14.4" height="14.4"/>
<rect x="6234.5" y="-1227.4" class="st2" width="14.4" height="14.4"/>
<rect x="6293.8" y="-1227.4" class="st2" width="14.4" height="14.4"/>
<rect x="6264.2" y="-1227.4" class="st8" width="14.4" height="14.4"/>
<rect x="5762.9" y="-1236.3" class="st3" width="308.6" height="22.9"/>
<rect x="5857.5" y="-1272.6" class="st3" width="22.9" height="22.9"/>
<rect x="5810.2" y="-1272.6" class="st3" width="22.9" height="22.9"/>
<rect x="5762.9" y="-1272.6" class="st3" width="22.9" height="22.9"/>
<rect x="5952" y="-1272.6" class="st3" width="22.9" height="22.9"/>
<rect x="5904.8" y="-1272.6" class="st3" width="22.9" height="22.9"/>
<rect x="5999.3" y="-1272.6" class="st3" width="22.9" height="22.9"/>
<rect x="6046.6" y="-1272.6" class="st3" width="22.9" height="22.9"/>
<rect x="5484.3" y="-1236.3" class="st3" width="117.4" height="22.9"/>
<rect x="5484.3" y="-1272.6" class="st3" width="22.9" height="22.9"/>
<rect x="5531.6" y="-1272.6" class="st3" width="22.9" height="22.9"/>
<rect x="5578.8" y="-1272.6" class="st3" width="22.9" height="22.9"/>
<rect x="5923.5" y="-1424.8" class="st8" width="14.4" height="14.4"/>
<rect x="5953.2" y="-1424.8" class="st8" width="14.4" height="14.4"/>
<rect x="5923.5" y="-1402" class="st2" width="14.4" height="14.4"/>
<rect x="5953.2" y="-1402" class="st8" width="14.4" height="14.4"/>
<rect x="5953.2" y="-1447.6" class="st8" width="14.4" height="14.4"/>
<rect x="5923.5" y="-1447.6" class="st2" width="14.4" height="14.4"/>
<rect x="5923.5" y="-1379.1" class="st2" width="14.4" height="14.4"/>
<rect x="5953.2" y="-1379.1" class="st8" width="14.4" height="14.4"/>
<rect x="5923.5" y="-1355.7" class="st8" width="14.4" height="14.4"/>
<rect x="5953.2" y="-1355.7" class="st8" width="14.4" height="14.4"/>
<rect x="5923.5" y="-1332.8" class="st2" width="14.4" height="14.4"/>
<rect x="5953.2" y="-1332.8" class="st8" width="14.4" height="14.4"/>
<rect x="5923.5" y="-1310" class="st2" width="14.4" height="14.4"/>
<rect x="5953.2" y="-1310" class="st8" width="14.4" height="14.4"/>
<rect x="5982.9" y="-1379.1" class="st8" width="39.3" height="14.4"/>
<rect x="5982.9" y="-1355.7" class="st2" width="39.3" height="14.4"/>
<rect x="5982.9" y="-1402" class="st8" width="14.4" height="14.4"/>
<rect x="5982.9" y="-1332.8" class="st8" width="39.3" height="14.4"/>
<rect x="5982.9" y="-1310" class="st8" width="39.3" height="14.4"/>
<rect x="5701.1" y="-1274.8" class="st2" width="22.9" height="22.9"/>
<rect x="5653.8" y="-1274.8" class="st5" width="22.9" height="22.9"/>
<rect x="5701.1" y="-1238.4" class="st5" width="22.9" height="22.9"/>
<rect x="5653.8" y="-1238.4" class="st2" width="22.9" height="22.9"/>
<rect x="5701.1" y="-1311.1" class="st5" width="22.9" height="22.9"/>
<rect x="5653.8" y="-1311.1" class="st2" width="22.9" height="22.9"/>
<rect x="5701.1" y="-1347.5" class="st2" width="22.9" height="22.9"/>
<rect x="5653.8" y="-1347.5" class="st2" width="22.9" height="22.9"/>
<rect x="5775.4" y="-1297.9" class="st2" width="131.3" height="7"/>
<rect x="5775.4" y="-1308.5" class="st2" width="131.3" height="7"/>
<rect x="5775.4" y="-1319.1" class="st2" width="131.3" height="7"/>
<rect x="5775.4" y="-1329.8" class="st2" width="131.3" height="7"/>
<rect x="5775.4" y="-1340.4" class="st2" width="131.3" height="7"/>
<rect x="5775.4" y="-1351.1" class="st2" width="131.3" height="7"/>
<circle class="st7" cx="6437.7" cy="-1625.7" r="50"/>
<polygon class="st6" points="6088.8,-1537.1 6074.3,-1537.1 6081.6,-1611.5 6088.8,-1686 6096.1,-1611.5 6103.4,-1537.1 "/>
<g>
	<path class="st1" d="M6234.5-1010c0,15.7-13,28.5-29,28.5h-690.7c-16,0-29-12.8-29-28.5c0-15.7,13-28.5,29-28.5h690.7
		C6221.4-1038.5,6234.5-1025.7,6234.5-1010z"/>
</g>
<g>
	<path class="st0" d="M5884.2-1008c0,15.7-13,28.5-29,28.5h-392c-15.9,0-29-12.8-29-28.5c0-15.7,13.1-28.5,29-28.5h392
		C5871.1-1036.5,5884.2-1023.7,5884.2-1008z"/>
</g>
<g>
	<path class="st0" d="M6589.2-1009c0,15.7-13,28.5-29,28.5h-377.3c-16,0-29-12.8-29-28.5c0-15.7,13-28.5,29-28.5h377.3
		C6576.2-1037.5,6589.2-1024.7,6589.2-1009z"/>
</g>
<g>
	<path class="st1" d="M6603.5-925.5C6603.5-925.5,6603.5-925.5,6603.5-925.5l-1280,0c0,0,0,0,0,0v-57c0,0,0,0,0,0h1280c0,0,0,0,0,0
		V-925.5z"/>
</g>
<rect x="5323.5" y="-954" class="st1" width="1280" height="800"/>
<rect x="5323.5" y="646" class="st3" width="1280" height="800"/>
<circle class="st4" cx="5519.2" cy="-119.6" r="324.5"/>
<circle class="st6" cx="5902.2" cy="-19.6" r="324.5"/>
<rect x="5323.5" y="-154" class="st4" width="1280" height="800"/>
<circle class="st7" cx="6437.7" cy="-827.7" r="50"/>
<circle class="st7" cx="6437.7" cy="-19.7" r="50"/>
<circle class="st7" cx="6437.7" cy="772.3" r="50"/>
<g>
	<path class="st3" d="M6437.9,449.5c0,15.7-13.1,28.5-29,28.5H5400.5c-16,0-29-12.8-29-28.5s13-28.5,29-28.5h1008.4
		C6424.9,421,6437.9,433.8,6437.9,449.5z"/>
</g>
<g>
	<path class="st3" d="M6441.6,505.5c0,15.7-13,28.5-29,28.5H5404.1c-15.9,0-29-12.8-29-28.5c0-15.7,13.1-28.5,29-28.5h1008.4
		C6428.5,477,6441.6,489.8,6441.6,505.5z"/>
</g>
<g>
	<path class="st4" d="M5773.5,506.5c0,15.7-13,28.5-29,28.5h-392c-16,0-29-12.8-29-28.5c0-15.7,13-28.5,29-28.5h392
		C5760.5,478,5773.5,490.8,5773.5,506.5z"/>
</g>
<g>
	<path class="st4" d="M6548.4,506.5c0,15.7-13.1,28.5-29,28.5h-447.1c-15.9,0-29-12.8-29-28.5c0-15.7,13.1-28.5,29-28.5h447.1
		C6535.3,478,6548.4,490.8,6548.4,506.5z"/>
</g>
<g>
	<path class="st3" d="M6229.4,561.5c0,15.7-13,28.5-29,28.5H5456c-16,0-29-12.8-29-28.5s13-28.5,29-28.5h744.5
		C6216.4,533,6229.4,545.8,6229.4,561.5z"/>
</g>
<g>
	<path class="st3" d="M6411.4,561.5c0,15.7-13,28.5-29,28.5h-74c-16,0-29-12.8-29-28.5s13-28.5,29-28.5h74
		C6398.4,533,6411.4,545.8,6411.4,561.5z"/>
</g>
<g>
	<path class="st3" d="M6193.6,617.5c0,15.7-13.1,28.5-29,28.5h-690.7c-16,0-29-12.8-29-28.5c0-15.7,13-28.5,29-28.5h690.7
		C6180.6,589,6193.6,601.8,6193.6,617.5z"/>
</g>
<g>
	<path class="st4" d="M5843.3,619.5c0,15.7-13.1,28.5-29,28.5h-392c-16,0-29-12.8-29-28.5c0-15.7,13-28.5,29-28.5h392
		C5830.2,591,5843.3,603.8,5843.3,619.5z"/>
</g>
<g>
	<path class="st4" d="M6548.4,618.5c0,15.7-13.1,28.5-29,28.5H6142c-15.9,0-29-12.8-29-28.5c0-15.7,13.1-28.5,29-28.5h377.3
		C6535.3,590,6548.4,602.8,6548.4,618.5z"/>
</g>
<rect x="4853.7" y="-456.2" class="st9" width="464" height="973"/>
<rect x="3914.5" y="-1729.1" class="st0" width="1280" height="800"/>
<g>
	<path class="st1" d="M5069.8-1093c0,15.7-13,28.5-29,28.5H4032.3c-15.9,0-29-12.8-29-28.5c0-15.7,13.1-28.5,29-28.5h1008.4
		C5056.7-1121.5,5069.8-1108.7,5069.8-1093z"/>
</g>
<g>
	<path class="st1" d="M5073.5-1037c0,15.7-13.1,28.5-29,28.5H4036c-15.9,0-29-12.8-29-28.5c0-15.7,13.1-28.5,29-28.5h1008.4
		C5060.4-1065.5,5073.5-1052.7,5073.5-1037z"/>
</g>
<g>
	<path class="st0" d="M4405.4-1036c0,15.7-13.1,28.5-29,28.5h-392c-15.9,0-29-12.8-29-28.5c0-15.7,13.1-28.5,29-28.5h392
		C4392.3-1064.5,4405.4-1051.7,4405.4-1036z"/>
</g>
<g>
	<path class="st0" d="M5180.2-1036c0,15.7-13,28.5-29,28.5h-447.1c-16,0-29-12.8-29-28.5c0-15.7,13-28.5,29-28.5h447.1
		C5167.2-1064.5,5180.2-1051.7,5180.2-1036z"/>
</g>
<g>
	<path class="st1" d="M4861.3-981c0,15.7-13.1,28.5-29,28.5h-744.5c-15.9,0-29-12.8-29-28.5c0-15.7,13.1-28.5,29-28.5h744.5
		C4848.3-1009.5,4861.3-996.7,4861.3-981z"/>
</g>
<g>
	<path class="st1" d="M5043.3-981c0,15.7-13.1,28.5-29,28.5h-74c-15.9,0-29-12.8-29-28.5c0-15.7,13.1-28.5,29-28.5h74
		C5030.2-1009.5,5043.3-996.7,5043.3-981z"/>
</g>
<rect x="4292.1" y="-1369.5" class="st2" width="108" height="207.1"/>
<rect x="4346.5" y="-1424.2" class="st2" width="53.6" height="55.8"/>
<polygon class="st3" points="4267.7,-1122.6 4109.7,-1122.6 4109.7,-1389.8 4174.4,-1540.6 4267.7,-1540.6 "/>
<polygon class="st3" points="4498.7,-1118.8 4631.4,-1118.8 4631.4,-1284.2 4565,-1377.5 4498.7,-1377.5 "/>
<rect x="4665.1" y="-1459.8" class="st6" width="176.4" height="338.3"/>
<polygon class="st5" points="5028.9,-1121.2 4853.9,-1121.2 4853.9,-1335.6 4897.6,-1396 4985.8,-1396.2 5028.9,-1336.1 "/>
<polygon class="st6" points="4826.9,-1452.1 4812.3,-1452.1 4819.6,-1526.5 4826.9,-1601 4834.1,-1526.5 4841.4,-1452.1 "/>
<rect x="4652.6" y="-1391.1" class="st6" width="201.2" height="269.6"/>
<rect x="4695.5" y="-1459.8" class="st4" width="116.8" height="120.8"/>
<rect x="4712.9" y="-1365.3" class="st6" width="80.8" height="243.8"/>
<rect x="4733.7" y="-1386.9" class="st6" width="40.4" height="265.4"/>
<rect x="4378.1" y="-1301.8" class="st5" width="108" height="103.5"/>
<rect x="4401.2" y="-1325.2" class="st5" width="61.7" height="25.1"/>
<polygon class="st2" points="4368.8,-1420.1 4373.4,-1558.5 4378.2,-1420.1 "/>
<g>
	<circle class="st2" cx="4559.7" cy="-1533.5" r="33.6"/>
	<ellipse class="st2" cx="4615.7" cy="-1547.2" rx="42.8" ry="49.1"/>
	<ellipse class="st2" cx="4674.7" cy="-1532.6" rx="32.6" ry="34.5"/>
	<ellipse class="st2" cx="4525.6" cy="-1516.3" rx="17.8" ry="16.4"/>
	<polygon class="st2" points="4525,-1499.9 4674.7,-1498.1 4612.9,-1547.2 	"/>
</g>
<rect x="4353.4" y="-1276.6" class="st5" width="157.3" height="103.5"/>
<rect x="4292.1" y="-1201" class="st7" width="387.8" height="79.7"/>
<rect x="4225.9" y="-1276.6" class="st4" width="108" height="155.3"/>
<rect x="4049.9" y="-1202.3" class="st7" width="176" height="79.7"/>
<rect x="4058.8" y="-1101" class="st2" width="61.9" height="16"/>
<rect x="4167.9" y="-1101" class="st2" width="61.9" height="16"/>
<rect x="4276.9" y="-1101" class="st2" width="61.9" height="16"/>
<rect x="4386" y="-1101" class="st2" width="61.9" height="16"/>
<rect x="4495" y="-1101" class="st2" width="61.9" height="16"/>
<rect x="4607.8" y="-1101" class="st2" width="61.9" height="16"/>
<rect x="4716.9" y="-1101" class="st2" width="61.9" height="16"/>
<rect x="4825.9" y="-1101" class="st2" width="61.9" height="16"/>
<rect x="4934.9" y="-1101" class="st2" width="61.9" height="16"/>
<rect x="4134" y="-1380.5" class="st8" width="22.9" height="22.9"/>
<rect x="4228.6" y="-1380.5" class="st8" width="22.9" height="22.9"/>
<rect x="4181.3" y="-1380.5" class="st8" width="22.9" height="22.9"/>
<rect x="4134" y="-1344.1" class="st2" width="22.9" height="22.9"/>
<rect x="4228.6" y="-1344.1" class="st8" width="22.9" height="22.9"/>
<rect x="4181.3" y="-1344.1" class="st8" width="22.9" height="22.9"/>
<rect x="4134" y="-1307.7" class="st8" width="22.9" height="22.9"/>
<rect x="4228.6" y="-1307.7" class="st8" width="22.9" height="22.9"/>
<rect x="4181.3" y="-1307.7" class="st2" width="22.9" height="22.9"/>
<rect x="4134" y="-1271.3" class="st8" width="22.9" height="22.9"/>
<rect x="4181.3" y="-1271.3" class="st8" width="22.9" height="22.9"/>
<rect x="4134" y="-1235" class="st2" width="22.9" height="22.9"/>
<rect x="4181.3" y="-1235" class="st8" width="22.9" height="22.9"/>
<rect x="4228.6" y="-1416.9" class="st8" width="22.9" height="22.9"/>
<rect x="4181.3" y="-1416.9" class="st8" width="22.9" height="22.9"/>
<rect x="4228.6" y="-1526" class="st8" width="22.9" height="22.9"/>
<rect x="4228.6" y="-1489.6" class="st8" width="22.9" height="22.9"/>
<rect x="4181.3" y="-1489.6" class="st2" width="22.9" height="22.9"/>
<rect x="4228.6" y="-1453.2" class="st8" width="22.9" height="22.9"/>
<rect x="4181.3" y="-1453.2" class="st8" width="22.9" height="22.9"/>
<rect x="4134" y="-1416.9" class="st2" width="22.9" height="22.9"/>
<rect x="4723.1" y="-1320.3" class="st4" width="7" height="197.7"/>
<rect x="4733.8" y="-1320.3" class="st4" width="7" height="197.7"/>
<rect x="4744.4" y="-1320.3" class="st4" width="7" height="197.7"/>
<rect x="4755.1" y="-1320.3" class="st4" width="7" height="197.7"/>
<rect x="4765.7" y="-1320.3" class="st4" width="7" height="197.7"/>
<rect x="4776.4" y="-1320.3" class="st4" width="7" height="197.7"/>
<rect x="4898.7" y="-1313.9" class="st2" width="7" height="192.4"/>
<rect x="4909.3" y="-1313.9" class="st2" width="7" height="192.4"/>
<rect x="4920" y="-1313.9" class="st2" width="7" height="192.4"/>
<rect x="4930.6" y="-1313.9" class="st2" width="7" height="192.4"/>
<rect x="4941.3" y="-1313.9" class="st2" width="7" height="192.4"/>
<rect x="4951.9" y="-1313.9" class="st2" width="7" height="192.4"/>
<rect x="4962.6" y="-1313.9" class="st2" width="7" height="192.4"/>
<rect x="4973.2" y="-1313.9" class="st2" width="7" height="192.4"/>
<rect x="4856.2" y="-1313.9" class="st2" width="7" height="192.4"/>
<rect x="4866.9" y="-1313.9" class="st2" width="7" height="192.4"/>
<rect x="4877.5" y="-1313.9" class="st2" width="7" height="192.4"/>
<rect x="4888.2" y="-1313.9" class="st2" width="7" height="192.4"/>
<rect x="4983.9" y="-1313.9" class="st2" width="7" height="192.4"/>
<rect x="4994.5" y="-1313.9" class="st2" width="7" height="192.4"/>
<rect x="5005.1" y="-1313.9" class="st2" width="7" height="192.4"/>
<rect x="5015.8" y="-1313.9" class="st2" width="7" height="192.4"/>
<rect x="4831.5" y="-1248.1" class="st3" width="61.7" height="25.1"/>
<rect x="4808.3" y="-1224.8" class="st3" width="108" height="103.5"/>
<rect x="4825.5" y="-1188" class="st8" width="14.4" height="14.4"/>
<rect x="4884.8" y="-1188" class="st8" width="14.4" height="14.4"/>
<rect x="4855.2" y="-1188" class="st8" width="14.4" height="14.4"/>
<rect x="4825.5" y="-1165.2" class="st2" width="14.4" height="14.4"/>
<rect x="4884.8" y="-1165.2" class="st8" width="14.4" height="14.4"/>
<rect x="4855.2" y="-1165.2" class="st8" width="14.4" height="14.4"/>
<rect x="4884.8" y="-1210.9" class="st8" width="14.4" height="14.4"/>
<rect x="4855.2" y="-1210.9" class="st8" width="14.4" height="14.4"/>
<rect x="4825.5" y="-1210.9" class="st2" width="14.4" height="14.4"/>
<rect x="4870" y="-1242" class="st2" width="14.4" height="14.4"/>
<rect x="4840.3" y="-1242" class="st2" width="14.4" height="14.4"/>
<rect x="4825.5" y="-1142.4" class="st2" width="14.4" height="14.4"/>
<rect x="4884.8" y="-1142.4" class="st2" width="14.4" height="14.4"/>
<rect x="4855.2" y="-1142.4" class="st8" width="14.4" height="14.4"/>
<rect x="4353.9" y="-1151.3" class="st3" width="308.6" height="22.9"/>
<rect x="4448.5" y="-1187.6" class="st3" width="22.9" height="22.9"/>
<rect x="4401.2" y="-1187.6" class="st3" width="22.9" height="22.9"/>
<rect x="4353.9" y="-1187.6" class="st3" width="22.9" height="22.9"/>
<rect x="4543" y="-1187.6" class="st3" width="22.9" height="22.9"/>
<rect x="4495.8" y="-1187.6" class="st3" width="22.9" height="22.9"/>
<rect x="4590.3" y="-1187.6" class="st3" width="22.9" height="22.9"/>
<rect x="4637.6" y="-1187.6" class="st3" width="22.9" height="22.9"/>
<rect x="4075.3" y="-1151.3" class="st3" width="117.4" height="22.9"/>
<rect x="4075.3" y="-1187.6" class="st3" width="22.9" height="22.9"/>
<rect x="4122.6" y="-1187.6" class="st3" width="22.9" height="22.9"/>
<rect x="4169.8" y="-1187.6" class="st3" width="22.9" height="22.9"/>
<rect x="4514.5" y="-1339.8" class="st8" width="14.4" height="14.4"/>
<rect x="4544.2" y="-1339.8" class="st8" width="14.4" height="14.4"/>
<rect x="4514.5" y="-1317" class="st2" width="14.4" height="14.4"/>
<rect x="4544.2" y="-1317" class="st8" width="14.4" height="14.4"/>
<rect x="4544.2" y="-1362.6" class="st8" width="14.4" height="14.4"/>
<rect x="4514.5" y="-1362.6" class="st2" width="14.4" height="14.4"/>
<rect x="4514.5" y="-1294.1" class="st2" width="14.4" height="14.4"/>
<rect x="4544.2" y="-1294.1" class="st8" width="14.4" height="14.4"/>
<rect x="4514.5" y="-1270.7" class="st8" width="14.4" height="14.4"/>
<rect x="4544.2" y="-1270.7" class="st8" width="14.4" height="14.4"/>
<rect x="4514.5" y="-1247.8" class="st2" width="14.4" height="14.4"/>
<rect x="4544.2" y="-1247.8" class="st8" width="14.4" height="14.4"/>
<rect x="4514.5" y="-1225" class="st2" width="14.4" height="14.4"/>
<rect x="4544.2" y="-1225" class="st8" width="14.4" height="14.4"/>
<rect x="4573.9" y="-1294.1" class="st8" width="39.3" height="14.4"/>
<rect x="4573.9" y="-1270.7" class="st2" width="39.3" height="14.4"/>
<rect x="4573.9" y="-1317" class="st8" width="14.4" height="14.4"/>
<rect x="4573.9" y="-1247.8" class="st8" width="39.3" height="14.4"/>
<rect x="4573.9" y="-1225" class="st8" width="39.3" height="14.4"/>
<rect x="4292.1" y="-1189.8" class="st2" width="22.9" height="22.9"/>
<rect x="4244.8" y="-1189.8" class="st5" width="22.9" height="22.9"/>
<rect x="4292.1" y="-1153.4" class="st5" width="22.9" height="22.9"/>
<rect x="4244.8" y="-1153.4" class="st2" width="22.9" height="22.9"/>
<rect x="4292.1" y="-1226.1" class="st5" width="22.9" height="22.9"/>
<rect x="4244.8" y="-1226.1" class="st2" width="22.9" height="22.9"/>
<rect x="4292.1" y="-1262.5" class="st2" width="22.9" height="22.9"/>
<rect x="4244.8" y="-1262.5" class="st2" width="22.9" height="22.9"/>
<rect x="4366.4" y="-1212.9" class="st2" width="131.3" height="7"/>
<rect x="4366.4" y="-1223.5" class="st2" width="131.3" height="7"/>
<rect x="4366.4" y="-1234.1" class="st2" width="131.3" height="7"/>
<rect x="4366.4" y="-1244.8" class="st2" width="131.3" height="7"/>
<rect x="4366.4" y="-1255.4" class="st2" width="131.3" height="7"/>
<rect x="4366.4" y="-1266.1" class="st2" width="131.3" height="7"/>
<circle class="st7" cx="5028.7" cy="-1540.7" r="50"/>
<polygon class="st6" points="4679.8,-1452.1 4665.3,-1452.1 4672.6,-1526.5 4679.8,-1601 4687.1,-1526.5 4694.4,-1452.1 "/>
<rect x="3914.5" y="-948" class="st0" width="1280" height="800"/>
<rect x="3914.5" y="652" class="st0" width="1280" height="800"/>
<circle class="st4" cx="4110.2" cy="-113.6" r="324.5"/>
<circle class="st6" cx="4493.2" cy="-13.6" r="324.5"/>
<rect x="3914.5" y="-148" class="st4" width="1280" height="800"/>
<circle class="st7" cx="5028.7" cy="-821.7" r="50"/>
<circle class="st7" cx="5028.7" cy="-13.7" r="50"/>
<circle class="st7" cx="5028.7" cy="778.3" r="50"/>
<g>
	<path class="st0" d="M5028.9,455.5c0,15.7-13.1,28.5-29,28.5H3991.5c-15.9,0-29-12.8-29-28.5s13.1-28.5,29-28.5h1008.4
		C5015.9,427,5028.9,439.8,5028.9,455.5z"/>
</g>
<g>
	<path class="st0" d="M5032.6,511.5c0,15.7-13,28.5-29,28.5H3995.1c-16,0-29-12.8-29-28.5c0-15.7,13-28.5,29-28.5h1008.4
		C5019.5,483,5032.6,495.8,5032.6,511.5z"/>
</g>
<g>
	<path class="st4" d="M4364.5,512.5c0,15.7-13,28.5-29,28.5h-392c-16,0-29-12.8-29-28.5c0-15.7,13-28.5,29-28.5h392
		C4351.5,484,4364.5,496.8,4364.5,512.5z"/>
</g>
<g>
	<path class="st4" d="M5139.4,512.5c0,15.7-13.1,28.5-29,28.5h-447.1c-15.9,0-29-12.8-29-28.5c0-15.7,13.1-28.5,29-28.5h447.1
		C5126.3,484,5139.4,496.8,5139.4,512.5z"/>
</g>
<g>
	<path class="st0" d="M4820.4,567.5c0,15.7-13,28.5-29,28.5H4047c-15.9,0-29-12.8-29-28.5s13.1-28.5,29-28.5h744.5
		C4807.4,539,4820.4,551.8,4820.4,567.5z"/>
</g>
<g>
	<path class="st0" d="M5002.4,567.5c0,15.7-13,28.5-29,28.5h-74c-16,0-29-12.8-29-28.5s13-28.5,29-28.5h74
		C4989.4,539,5002.4,551.8,5002.4,567.5z"/>
</g>
<g>
	<path class="st0" d="M4784.6,623.5c0,15.7-13.1,28.5-29,28.5h-690.7c-15.9,0-29-12.8-29-28.5c0-15.7,13.1-28.5,29-28.5h690.7
		C4771.6,595,4784.6,607.8,4784.6,623.5z"/>
</g>
<g>
	<path class="st4" d="M4434.3,625.5c0,15.7-13.1,28.5-29,28.5h-392c-15.9,0-29-12.8-29-28.5c0-15.7,13.1-28.5,29-28.5h392
		C4421.2,597,4434.3,609.8,4434.3,625.5z"/>
</g>
<g>
	<path class="st4" d="M5139.4,624.5c0,15.7-13.1,28.5-29,28.5H4733c-15.9,0-29-12.8-29-28.5c0-15.7,13.1-28.5,29-28.5h377.3
		C5126.3,596,5139.4,608.8,5139.4,624.5z"/>
</g>
<rect x="3444.7" y="-450.2" class="st9" width="464" height="973"/>
<text transform="matrix(1 0 0 1 3933.6938 -1619.7694)" class="st3" style="font-family:'Raleway-Bold'; font-size:100px;">GRACE KAMPA</text>
<text transform="matrix(1 0 0 1 3941.6938 -1626.7694)" class="st2" style="font-family:'Raleway-Bold'; font-size:100px;">GRACE KAMPA</text>
<text transform="matrix(1 0 0 1 4285.8677 -1749.1577)" class="st1" style="font-family:'Raleway-Bold'; font-size:52px;">GRACE KAMPA</text>
<rect x="2593.5" y="-1726.1" class="st0" width="1280" height="800"/>
<g>
	<path class="st1" d="M3766.8-967c0,15.7-13.1,28.5-29,28.5H2729.3c-15.9,0-29-12.8-29-28.5s13.1-28.5,29-28.5h1008.4
		C3753.7-995.5,3766.8-982.7,3766.8-967z"/>
</g>
<rect x="2989.1" y="-1243.5" class="st2" width="108" height="207.1"/>
<rect x="3043.5" y="-1298.2" class="st2" width="53.6" height="55.8"/>
<polygon class="st3" points="2964.7,-996.6 2806.7,-996.6 2806.7,-1263.8 2871.4,-1414.6 2964.7,-1414.6 "/>
<polygon class="st3" points="3195.7,-992.8 3328.4,-992.8 3328.4,-1158.2 3262,-1251.5 3195.7,-1251.5 "/>
<rect x="3362.1" y="-1333.8" class="st6" width="176.4" height="338.3"/>
<polygon class="st5" points="3725.9,-995.2 3550.9,-995.2 3550.9,-1209.6 3594.6,-1270 3682.8,-1270.2 3725.9,-1210.1 "/>
<polygon class="st6" points="3523.9,-1326.1 3509.3,-1326.1 3516.6,-1400.5 3523.9,-1475 3531.1,-1400.5 3538.4,-1326.1 "/>
<rect x="3349.6" y="-1265.1" class="st6" width="201.2" height="269.6"/>
<rect x="3392.5" y="-1333.8" class="st4" width="116.8" height="120.8"/>
<rect x="3409.9" y="-1239.3" class="st6" width="80.8" height="243.8"/>
<rect x="3430.7" y="-1260.9" class="st6" width="40.4" height="265.4"/>
<rect x="3075.1" y="-1175.8" class="st5" width="108" height="103.5"/>
<rect x="3098.2" y="-1199.2" class="st5" width="61.7" height="25.1"/>
<polygon class="st2" points="3065.8,-1294.1 3070.4,-1432.5 3075.2,-1294.1 "/>
<g>
	<circle class="st2" cx="3256.7" cy="-1407.5" r="33.6"/>
	<ellipse class="st2" cx="3312.7" cy="-1421.2" rx="42.8" ry="49.1"/>
	<ellipse class="st2" cx="3371.7" cy="-1406.6" rx="32.6" ry="34.5"/>
	<ellipse class="st2" cx="3222.6" cy="-1390.3" rx="17.8" ry="16.4"/>
	<polygon class="st2" points="3222,-1373.9 3371.7,-1372.1 3309.9,-1421.2 	"/>
</g>
<rect x="3050.4" y="-1150.6" class="st5" width="157.3" height="103.5"/>
<rect x="2989.1" y="-1075" class="st7" width="387.8" height="79.7"/>
<rect x="2922.9" y="-1150.6" class="st4" width="108" height="155.3"/>
<rect x="2746.9" y="-1076.3" class="st7" width="176" height="79.7"/>
<rect x="2755.8" y="-975" class="st2" width="61.9" height="16"/>
<rect x="2864.9" y="-975" class="st2" width="61.9" height="16"/>
<rect x="2973.9" y="-975" class="st2" width="61.9" height="16"/>
<rect x="3083" y="-975" class="st2" width="61.9" height="16"/>
<rect x="3192" y="-975" class="st2" width="61.9" height="16"/>
<rect x="3304.8" y="-975" class="st2" width="61.9" height="16"/>
<rect x="3413.9" y="-975" class="st2" width="61.9" height="16"/>
<rect x="3522.9" y="-975" class="st2" width="61.9" height="16"/>
<rect x="3631.9" y="-975" class="st2" width="61.9" height="16"/>
<rect x="2831" y="-1254.5" class="st8" width="22.9" height="22.9"/>
<rect x="2925.6" y="-1254.5" class="st8" width="22.9" height="22.9"/>
<rect x="2878.3" y="-1254.5" class="st8" width="22.9" height="22.9"/>
<rect x="2831" y="-1218.1" class="st2" width="22.9" height="22.9"/>
<rect x="2925.6" y="-1218.1" class="st8" width="22.9" height="22.9"/>
<rect x="2878.3" y="-1218.1" class="st8" width="22.9" height="22.9"/>
<rect x="2831" y="-1181.7" class="st8" width="22.9" height="22.9"/>
<rect x="2925.6" y="-1181.7" class="st8" width="22.9" height="22.9"/>
<rect x="2878.3" y="-1181.7" class="st2" width="22.9" height="22.9"/>
<rect x="2831" y="-1145.3" class="st8" width="22.9" height="22.9"/>
<rect x="2878.3" y="-1145.3" class="st8" width="22.9" height="22.9"/>
<rect x="2831" y="-1109" class="st2" width="22.9" height="22.9"/>
<rect x="2878.3" y="-1109" class="st8" width="22.9" height="22.9"/>
<rect x="2925.6" y="-1290.9" class="st8" width="22.9" height="22.9"/>
<rect x="2878.3" y="-1290.9" class="st8" width="22.9" height="22.9"/>
<rect x="2925.6" y="-1400" class="st8" width="22.9" height="22.9"/>
<rect x="2925.6" y="-1363.6" class="st8" width="22.9" height="22.9"/>
<rect x="2878.3" y="-1363.6" class="st2" width="22.9" height="22.9"/>
<rect x="2925.6" y="-1327.2" class="st8" width="22.9" height="22.9"/>
<rect x="2878.3" y="-1327.2" class="st8" width="22.9" height="22.9"/>
<rect x="2831" y="-1290.9" class="st2" width="22.9" height="22.9"/>
<rect x="3420.1" y="-1194.3" class="st4" width="7" height="197.7"/>
<rect x="3430.8" y="-1194.3" class="st4" width="7" height="197.7"/>
<rect x="3441.4" y="-1194.3" class="st4" width="7" height="197.7"/>
<rect x="3452.1" y="-1194.3" class="st4" width="7" height="197.7"/>
<rect x="3462.7" y="-1194.3" class="st4" width="7" height="197.7"/>
<rect x="3473.4" y="-1194.3" class="st4" width="7" height="197.7"/>
<rect x="3595.7" y="-1187.9" class="st2" width="7" height="192.4"/>
<rect x="3606.3" y="-1187.9" class="st2" width="7" height="192.4"/>
<rect x="3617" y="-1187.9" class="st2" width="7" height="192.4"/>
<rect x="3627.6" y="-1187.9" class="st2" width="7" height="192.4"/>
<rect x="3638.3" y="-1187.9" class="st2" width="7" height="192.4"/>
<rect x="3648.9" y="-1187.9" class="st2" width="7" height="192.4"/>
<rect x="3659.6" y="-1187.9" class="st2" width="7" height="192.4"/>
<rect x="3670.2" y="-1187.9" class="st2" width="7" height="192.4"/>
<rect x="3553.2" y="-1187.9" class="st2" width="7" height="192.4"/>
<rect x="3563.9" y="-1187.9" class="st2" width="7" height="192.4"/>
<rect x="3574.5" y="-1187.9" class="st2" width="7" height="192.4"/>
<rect x="3585.2" y="-1187.9" class="st2" width="7" height="192.4"/>
<rect x="3680.9" y="-1187.9" class="st2" width="7" height="192.4"/>
<rect x="3691.5" y="-1187.9" class="st2" width="7" height="192.4"/>
<rect x="3702.1" y="-1187.9" class="st2" width="7" height="192.4"/>
<rect x="3712.8" y="-1187.9" class="st2" width="7" height="192.4"/>
<rect x="3528.5" y="-1122.1" class="st3" width="61.7" height="25.1"/>
<rect x="3505.3" y="-1098.8" class="st3" width="108" height="103.5"/>
<rect x="3522.5" y="-1062" class="st8" width="14.4" height="14.4"/>
<rect x="3581.8" y="-1062" class="st8" width="14.4" height="14.4"/>
<rect x="3552.2" y="-1062" class="st8" width="14.4" height="14.4"/>
<rect x="3522.5" y="-1039.2" class="st2" width="14.4" height="14.4"/>
<rect x="3581.8" y="-1039.2" class="st8" width="14.4" height="14.4"/>
<rect x="3552.2" y="-1039.2" class="st8" width="14.4" height="14.4"/>
<rect x="3581.8" y="-1084.9" class="st8" width="14.4" height="14.4"/>
<rect x="3552.2" y="-1084.9" class="st8" width="14.4" height="14.4"/>
<rect x="3522.5" y="-1084.9" class="st2" width="14.4" height="14.4"/>
<rect x="3567" y="-1116" class="st2" width="14.4" height="14.4"/>
<rect x="3537.3" y="-1116" class="st2" width="14.4" height="14.4"/>
<rect x="3522.5" y="-1016.4" class="st2" width="14.4" height="14.4"/>
<rect x="3581.8" y="-1016.4" class="st2" width="14.4" height="14.4"/>
<rect x="3552.2" y="-1016.4" class="st8" width="14.4" height="14.4"/>
<rect x="3050.9" y="-1025.3" class="st3" width="308.6" height="22.9"/>
<rect x="3145.5" y="-1061.6" class="st3" width="22.9" height="22.9"/>
<rect x="3098.2" y="-1061.6" class="st3" width="22.9" height="22.9"/>
<rect x="3050.9" y="-1061.6" class="st3" width="22.9" height="22.9"/>
<rect x="3240" y="-1061.6" class="st3" width="22.9" height="22.9"/>
<rect x="3192.8" y="-1061.6" class="st3" width="22.9" height="22.9"/>
<rect x="3287.3" y="-1061.6" class="st3" width="22.9" height="22.9"/>
<rect x="3334.6" y="-1061.6" class="st3" width="22.9" height="22.9"/>
<rect x="2772.3" y="-1025.3" class="st3" width="117.4" height="22.9"/>
<rect x="2772.3" y="-1061.6" class="st3" width="22.9" height="22.9"/>
<rect x="2819.6" y="-1061.6" class="st3" width="22.9" height="22.9"/>
<rect x="2866.8" y="-1061.6" class="st3" width="22.9" height="22.9"/>
<rect x="3211.5" y="-1213.8" class="st8" width="14.4" height="14.4"/>
<rect x="3241.2" y="-1213.8" class="st8" width="14.4" height="14.4"/>
<rect x="3211.5" y="-1191" class="st2" width="14.4" height="14.4"/>
<rect x="3241.2" y="-1191" class="st8" width="14.4" height="14.4"/>
<rect x="3241.2" y="-1236.6" class="st8" width="14.4" height="14.4"/>
<rect x="3211.5" y="-1236.6" class="st2" width="14.4" height="14.4"/>
<rect x="3211.5" y="-1168.1" class="st2" width="14.4" height="14.4"/>
<rect x="3241.2" y="-1168.1" class="st8" width="14.4" height="14.4"/>
<rect x="3211.5" y="-1144.7" class="st8" width="14.4" height="14.4"/>
<rect x="3241.2" y="-1144.7" class="st8" width="14.4" height="14.4"/>
<rect x="3211.5" y="-1121.8" class="st2" width="14.4" height="14.4"/>
<rect x="3241.2" y="-1121.8" class="st8" width="14.4" height="14.4"/>
<rect x="3211.5" y="-1099" class="st2" width="14.4" height="14.4"/>
<rect x="3241.2" y="-1099" class="st8" width="14.4" height="14.4"/>
<rect x="3270.9" y="-1168.1" class="st8" width="39.3" height="14.4"/>
<rect x="3270.9" y="-1144.7" class="st2" width="39.3" height="14.4"/>
<rect x="3270.9" y="-1191" class="st8" width="14.4" height="14.4"/>
<rect x="3270.9" y="-1121.8" class="st8" width="39.3" height="14.4"/>
<rect x="3270.9" y="-1099" class="st8" width="39.3" height="14.4"/>
<rect x="2989.1" y="-1063.8" class="st2" width="22.9" height="22.9"/>
<rect x="2941.8" y="-1063.8" class="st5" width="22.9" height="22.9"/>
<rect x="2989.1" y="-1027.4" class="st5" width="22.9" height="22.9"/>
<rect x="2941.8" y="-1027.4" class="st2" width="22.9" height="22.9"/>
<rect x="2989.1" y="-1100.1" class="st5" width="22.9" height="22.9"/>
<rect x="2941.8" y="-1100.1" class="st2" width="22.9" height="22.9"/>
<rect x="2989.1" y="-1136.5" class="st2" width="22.9" height="22.9"/>
<rect x="2941.8" y="-1136.5" class="st2" width="22.9" height="22.9"/>
<rect x="3063.4" y="-1086.9" class="st2" width="131.3" height="7"/>
<rect x="3063.4" y="-1097.5" class="st2" width="131.3" height="7"/>
<rect x="3063.4" y="-1108.1" class="st2" width="131.3" height="7"/>
<rect x="3063.4" y="-1118.8" class="st2" width="131.3" height="7"/>
<rect x="3063.4" y="-1129.4" class="st2" width="131.3" height="7"/>
<rect x="3063.4" y="-1140.1" class="st2" width="131.3" height="7"/>
<circle class="st7" cx="3725.7" cy="-1414.7" r="50"/>
<polygon class="st6" points="3376.8,-1326.1 3362.3,-1326.1 3369.6,-1400.5 3376.8,-1475 3384.1,-1400.5 3391.4,-1326.1 "/>
<rect x="2600" y="-119.6" class="st4" width="1280" height="800"/>
<text transform="matrix(1 0 0 1 2817.4585 -1560.1321)" class="st3" style="font-family:'Raleway-Bold'; font-size:116px;">GRACE KAMPA</text>
<text transform="matrix(1 0 0 1 2829.4583 -1566.1321)" class="st2" style="font-family:'Raleway-Bold'; font-size:116px;">GRACE KAMPA</text>
<rect x="1253.5" y="-1726.1" class="st0" width="1280" height="800"/>
<rect x="1639.1" y="-1175.5" class="st2" width="108" height="207.1"/>
<rect x="1693.5" y="-1230.2" class="st2" width="53.6" height="55.8"/>
<polygon class="st3" points="1614.7,-928.6 1456.7,-928.6 1456.7,-1195.8 1521.4,-1346.6 1614.7,-1346.6 "/>
<polygon class="st3" points="1845.7,-926.8 1978.4,-926.8 1978.4,-1092.2 1912,-1185.5 1845.7,-1185.5 "/>
<rect x="2012.1" y="-1265.8" class="st6" width="176.4" height="338.3"/>
<polygon class="st5" points="2375.9,-927.2 2200.9,-927.2 2200.9,-1141.6 2244.6,-1202 2332.8,-1202.2 2375.9,-1142.1 "/>
<polygon class="st6" points="2173.9,-1258.1 2159.3,-1258.1 2166.6,-1332.5 2173.9,-1407 2181.1,-1332.5 2188.4,-1258.1 "/>
<rect x="1999.6" y="-1197.1" class="st6" width="201.2" height="269.6"/>
<rect x="2042.5" y="-1265.8" class="st4" width="116.8" height="120.8"/>
<rect x="2059.9" y="-1171.3" class="st6" width="80.8" height="243.8"/>
<rect x="2080.7" y="-1192.9" class="st6" width="40.4" height="265.4"/>
<rect x="1725.1" y="-1107.8" class="st5" width="108" height="103.5"/>
<rect x="1748.2" y="-1131.2" class="st5" width="61.7" height="25.1"/>
<polygon class="st2" points="1715.8,-1226.1 1720.4,-1364.5 1725.2,-1226.1 "/>
<g>
	<circle class="st2" cx="1906.7" cy="-1339.5" r="33.6"/>
	<ellipse class="st2" cx="1962.7" cy="-1353.2" rx="42.8" ry="49.1"/>
	<ellipse class="st2" cx="2021.7" cy="-1338.6" rx="32.6" ry="34.5"/>
	<ellipse class="st2" cx="1872.6" cy="-1322.3" rx="17.8" ry="16.4"/>
	<polygon class="st2" points="1872,-1305.9 2021.7,-1304.1 1959.9,-1353.2 	"/>
</g>
<rect x="1700.4" y="-1082.6" class="st5" width="157.3" height="103.5"/>
<rect x="1639.1" y="-1007" class="st7" width="387.8" height="79.7"/>
<rect x="1572.9" y="-1082.6" class="st4" width="108" height="155.3"/>
<rect x="1396.9" y="-1008.3" class="st7" width="176" height="79.7"/>
<rect x="1481" y="-1186.5" class="st8" width="22.9" height="22.9"/>
<rect x="1575.6" y="-1186.5" class="st8" width="22.9" height="22.9"/>
<rect x="1528.3" y="-1186.5" class="st8" width="22.9" height="22.9"/>
<rect x="1481" y="-1150.1" class="st2" width="22.9" height="22.9"/>
<rect x="1575.6" y="-1150.1" class="st8" width="22.9" height="22.9"/>
<rect x="1528.3" y="-1150.1" class="st8" width="22.9" height="22.9"/>
<rect x="1481" y="-1113.7" class="st8" width="22.9" height="22.9"/>
<rect x="1575.6" y="-1113.7" class="st8" width="22.9" height="22.9"/>
<rect x="1528.3" y="-1113.7" class="st2" width="22.9" height="22.9"/>
<rect x="1481" y="-1077.3" class="st8" width="22.9" height="22.9"/>
<rect x="1528.3" y="-1077.3" class="st8" width="22.9" height="22.9"/>
<rect x="1481" y="-1041" class="st2" width="22.9" height="22.9"/>
<rect x="1528.3" y="-1041" class="st8" width="22.9" height="22.9"/>
<rect x="1575.6" y="-1222.9" class="st8" width="22.9" height="22.9"/>
<rect x="1528.3" y="-1222.9" class="st8" width="22.9" height="22.9"/>
<rect x="1575.6" y="-1332" class="st8" width="22.9" height="22.9"/>
<rect x="1575.6" y="-1295.6" class="st8" width="22.9" height="22.9"/>
<rect x="1528.3" y="-1295.6" class="st2" width="22.9" height="22.9"/>
<rect x="1575.6" y="-1259.2" class="st8" width="22.9" height="22.9"/>
<rect x="1528.3" y="-1259.2" class="st8" width="22.9" height="22.9"/>
<rect x="1481" y="-1222.9" class="st2" width="22.9" height="22.9"/>
<rect x="2070.1" y="-1126.3" class="st4" width="7" height="197.7"/>
<rect x="2080.8" y="-1126.3" class="st4" width="7" height="197.7"/>
<rect x="2091.4" y="-1126.3" class="st4" width="7" height="197.7"/>
<rect x="2102.1" y="-1126.3" class="st4" width="7" height="197.7"/>
<rect x="2112.7" y="-1126.3" class="st4" width="7" height="197.7"/>
<rect x="2123.4" y="-1126.3" class="st4" width="7" height="197.7"/>
<rect x="2245.7" y="-1119.9" class="st2" width="7" height="192.4"/>
<rect x="2256.3" y="-1119.9" class="st2" width="7" height="192.4"/>
<rect x="2267" y="-1119.9" class="st2" width="7" height="192.4"/>
<rect x="2277.6" y="-1119.9" class="st2" width="7" height="192.4"/>
<rect x="2288.3" y="-1119.9" class="st2" width="7" height="192.4"/>
<rect x="2298.9" y="-1119.9" class="st2" width="7" height="192.4"/>
<rect x="2309.6" y="-1119.9" class="st2" width="7" height="192.4"/>
<rect x="2320.2" y="-1119.9" class="st2" width="7" height="192.4"/>
<rect x="2203.2" y="-1119.9" class="st2" width="7" height="192.4"/>
<rect x="2213.9" y="-1119.9" class="st2" width="7" height="192.4"/>
<rect x="2224.5" y="-1119.9" class="st2" width="7" height="192.4"/>
<rect x="2235.2" y="-1119.9" class="st2" width="7" height="192.4"/>
<rect x="2330.9" y="-1119.9" class="st2" width="7" height="192.4"/>
<rect x="2341.5" y="-1119.9" class="st2" width="7" height="192.4"/>
<rect x="2352.1" y="-1119.9" class="st2" width="7" height="192.4"/>
<rect x="2362.8" y="-1119.9" class="st2" width="7" height="192.4"/>
<rect x="2178.5" y="-1054.1" class="st3" width="61.7" height="25.1"/>
<rect x="2155.3" y="-1030.8" class="st3" width="108" height="103.5"/>
<rect x="2172.5" y="-994" class="st8" width="14.4" height="14.4"/>
<rect x="2231.8" y="-994" class="st8" width="14.4" height="14.4"/>
<rect x="2202.2" y="-994" class="st8" width="14.4" height="14.4"/>
<rect x="2172.5" y="-971.2" class="st2" width="14.4" height="14.4"/>
<rect x="2231.8" y="-971.2" class="st8" width="14.4" height="14.4"/>
<rect x="2202.2" y="-971.2" class="st8" width="14.4" height="14.4"/>
<rect x="2231.8" y="-1016.9" class="st8" width="14.4" height="14.4"/>
<rect x="2202.2" y="-1016.9" class="st8" width="14.4" height="14.4"/>
<rect x="2172.5" y="-1016.9" class="st2" width="14.4" height="14.4"/>
<rect x="2217" y="-1048" class="st2" width="14.4" height="14.4"/>
<rect x="2187.3" y="-1048" class="st2" width="14.4" height="14.4"/>
<rect x="2172.5" y="-948.4" class="st2" width="14.4" height="14.4"/>
<rect x="2231.8" y="-948.4" class="st2" width="14.4" height="14.4"/>
<rect x="2202.2" y="-948.4" class="st8" width="14.4" height="14.4"/>
<rect x="1700.9" y="-957.3" class="st3" width="308.6" height="22.9"/>
<rect x="1795.5" y="-993.6" class="st3" width="22.9" height="22.9"/>
<rect x="1748.2" y="-993.6" class="st3" width="22.9" height="22.9"/>
<rect x="1700.9" y="-993.6" class="st3" width="22.9" height="22.9"/>
<rect x="1890" y="-993.6" class="st3" width="22.9" height="22.9"/>
<rect x="1842.8" y="-993.6" class="st3" width="22.9" height="22.9"/>
<rect x="1937.3" y="-993.6" class="st3" width="22.9" height="22.9"/>
<rect x="1984.6" y="-993.6" class="st3" width="22.9" height="22.9"/>
<rect x="1422.3" y="-957.3" class="st3" width="117.4" height="22.9"/>
<rect x="1422.3" y="-993.6" class="st3" width="22.9" height="22.9"/>
<rect x="1469.6" y="-993.6" class="st3" width="22.9" height="22.9"/>
<rect x="1516.8" y="-993.6" class="st3" width="22.9" height="22.9"/>
<rect x="1861.5" y="-1145.8" class="st8" width="14.4" height="14.4"/>
<rect x="1891.2" y="-1145.8" class="st8" width="14.4" height="14.4"/>
<rect x="1861.5" y="-1123" class="st2" width="14.4" height="14.4"/>
<rect x="1891.2" y="-1123" class="st8" width="14.4" height="14.4"/>
<rect x="1891.2" y="-1168.6" class="st8" width="14.4" height="14.4"/>
<rect x="1861.5" y="-1168.6" class="st2" width="14.4" height="14.4"/>
<rect x="1861.5" y="-1100.1" class="st2" width="14.4" height="14.4"/>
<rect x="1891.2" y="-1100.1" class="st8" width="14.4" height="14.4"/>
<rect x="1861.5" y="-1076.7" class="st8" width="14.4" height="14.4"/>
<rect x="1891.2" y="-1076.7" class="st8" width="14.4" height="14.4"/>
<rect x="1861.5" y="-1053.8" class="st2" width="14.4" height="14.4"/>
<rect x="1891.2" y="-1053.8" class="st8" width="14.4" height="14.4"/>
<rect x="1861.5" y="-1031" class="st2" width="14.4" height="14.4"/>
<rect x="1891.2" y="-1031" class="st8" width="14.4" height="14.4"/>
<rect x="1920.9" y="-1100.1" class="st8" width="39.3" height="14.4"/>
<rect x="1920.9" y="-1076.7" class="st2" width="39.3" height="14.4"/>
<rect x="1920.9" y="-1123" class="st8" width="14.4" height="14.4"/>
<rect x="1920.9" y="-1053.8" class="st8" width="39.3" height="14.4"/>
<rect x="1920.9" y="-1031" class="st8" width="39.3" height="14.4"/>
<rect x="1639.1" y="-995.8" class="st2" width="22.9" height="22.9"/>
<rect x="1591.8" y="-995.8" class="st5" width="22.9" height="22.9"/>
<rect x="1639.1" y="-959.4" class="st5" width="22.9" height="22.9"/>
<rect x="1591.8" y="-959.4" class="st2" width="22.9" height="22.9"/>
<rect x="1639.1" y="-1032.1" class="st5" width="22.9" height="22.9"/>
<rect x="1591.8" y="-1032.1" class="st2" width="22.9" height="22.9"/>
<rect x="1639.1" y="-1068.5" class="st2" width="22.9" height="22.9"/>
<rect x="1591.8" y="-1068.5" class="st2" width="22.9" height="22.9"/>
<rect x="1713.4" y="-1018.9" class="st2" width="131.3" height="7"/>
<rect x="1713.4" y="-1029.5" class="st2" width="131.3" height="7"/>
<rect x="1713.4" y="-1040.1" class="st2" width="131.3" height="7"/>
<rect x="1713.4" y="-1050.8" class="st2" width="131.3" height="7"/>
<rect x="1713.4" y="-1061.4" class="st2" width="131.3" height="7"/>
<rect x="1713.4" y="-1072.1" class="st2" width="131.3" height="7"/>
<circle class="st7" cx="2375.7" cy="-1346.7" r="50"/>
<polygon class="st6" points="2026.8,-1258.1 2012.3,-1258.1 2019.6,-1332.5 2026.8,-1407 2034.1,-1332.5 2041.4,-1258.1 "/>
<rect x="1253.5" y="-925.5" class="st5" width="1280" height="800"/>
<rect x="1251.5" y="682.6" class="st3" width="1280" height="800"/>
<text transform="matrix(1 0 0 1 1477.4586 -1560.1321)" class="st3" style="font-family:'Raleway-Bold'; font-size:116px;">GRACE KAMPA</text>
<text transform="matrix(1 0 0 1 1489.4584 -1566.1321)" class="st2" style="font-family:'Raleway-Bold'; font-size:116px;">GRACE KAMPA</text>
<text transform="matrix(1 0 0 1 1729.5032 -782.1194)" style="fill:#88413F; font-family:'Raleway-Bold'; font-size:116px;">about</text>
<g>
	<text transform="matrix(1 0 0 1 3081.7805 23.7762)" class="st2" style="font-family:'Raleway-Bold'; font-size:116px;">skills</text>
</g>
<circle class="st10" cx="1418" cy="1092" r="92.3"/>
<circle class="st10" cx="1873.8" cy="1092" r="92.3"/>
<text transform="matrix(1 0 0 1 1316.6222 1261.3431)" class="st7" style="font-family:'Raleway'; font-size:61.5534px;">puzzles</text>
<circle class="st10" cx="2329.7" cy="1092" r="92.3"/>
<text transform="matrix(1 0 0 1 1795.4391 1261.3431)" class="st7" style="font-family:'Raleway'; font-size:61.5534px;">hiking</text>
<text transform="matrix(1 0 0 1 2182.0474 1261.3431)" class="st7" style="font-family:'Raleway'; font-size:61.5534px;">mud races</text>
<polygon class="st4" points="1815.6,1137.9 1856.3,1046.2 1895.5,1137.9 "/>
<polygon class="st6" points="1871.1,1137.9 1897.8,1092 1925.2,1137.9 "/>
<g>
	<circle class="st7" cx="1892.5" cy="1060.9" r="12.2"/>
	<ellipse class="st7" cx="1912.8" cy="1055.9" rx="15.5" ry="17.8"/>
	<ellipse class="st7" cx="1934.2" cy="1061.2" rx="11.8" ry="12.5"/>
	<ellipse class="st7" cx="1880.1" cy="1067.2" rx="6.5" ry="5.9"/>
	<polygon class="st7" points="1879.9,1073.1 1934.2,1073.8 1911.8,1055.9 	"/>
</g>
<rect x="1365.5" y="1039.5" class="st5" width="104.9" height="104.9"/>
<ellipse class="st5" cx="1418.2" cy="1143.9" rx="17.7" ry="21.8"/>
<ellipse class="st10" cx="1418.2" cy="1039.1" rx="17.7" ry="21.8"/>
<ellipse class="st5" cx="1469.8" cy="1092.3" rx="21.8" ry="17.7"/>
<ellipse class="st5" cx="1365" cy="1092.3" rx="21.8" ry="17.7"/>
<polygon class="st5" points="2360.4,1042.1 2412.6,1089.8 2342.9,1079.6 "/>
<line class="st11" x1="2360.6" y1="1042.6" x2="2312.7" y2="1143.7"/>
<polygon class="st5" points="2300.6,1042.1 2248.5,1089.8 2318.1,1079.6 "/>
<line class="st11" x1="2300.5" y1="1042.6" x2="2349.8" y2="1143.7"/>
<text transform="matrix(1 0 0 1 1646.9548 831.8535)" style="fill:#0A0F14; font-family:'Raleway-Bold'; font-size:116px;">interests</text>
<text transform="matrix(1 0 0 1 2663.7698 135.793)" class="st3" style="font-family:'Raleway'; font-size:40px;">HTML/CSS</text>
<text transform="matrix(1 0 0 1 2663.7695 256.7762)" class="st3" style="font-family:'Raleway'; font-size:40px;">JAVA</text>
<text transform="matrix(1 0 0 1 2663.7695 376.7881)" class="st3" style="font-family:'Raleway'; font-size:40px;">JAVASCRIPT</text>
<text transform="matrix(1 0 0 1 2663.7693 487.7993)" class="st3" style="font-family:'Raleway'; font-size:40px;">JQUERY</text>
<rect x="2663.8" y="155.7" class="st5" width="378.6" height="37.6"/>
<rect x="2663.8" y="280.4" class="st5" width="378.6" height="37.6"/>
<rect x="2663.8" y="400.7" class="st5" width="378.6" height="37.6"/>
<rect x="2663.8" y="507.2" class="st5" width="378.6" height="37.6"/>
<rect x="-347.5" y="-1164.1" class="st0" width="1280" height="800"/>
<rect x="-1164.9" y="-820.5" class="st2" width="108" height="207.1"/>
<rect x="-1110.5" y="-875.2" class="st2" width="53.6" height="55.8"/>
<polygon class="st3" points="-1189.3,-573.6 -1347.3,-573.6 -1347.3,-840.8 -1282.6,-991.6 -1189.3,-991.6 "/>
<polygon class="st3" points="-958.3,-571.8 -825.6,-571.8 -825.6,-737.2 -892,-830.5 -958.3,-830.5 "/>
<rect x="-791.9" y="-910.8" class="st6" width="176.4" height="338.3"/>
<polygon class="st5" points="-428.1,-572.2 -603.1,-572.2 -603.1,-786.6 -559.4,-847 -471.2,-847.2 -428.1,-787.1 "/>
<polygon class="st6" points="-630.1,-903.1 -644.7,-903.1 -637.4,-977.5 -630.1,-1052 -622.9,-977.5 -615.6,-903.1 "/>
<rect x="-804.4" y="-842.1" class="st6" width="201.2" height="269.6"/>
<rect x="-761.5" y="-910.8" class="st4" width="116.8" height="120.8"/>
<rect x="-744.1" y="-816.3" class="st6" width="80.8" height="243.8"/>
<rect x="-723.3" y="-837.9" class="st6" width="40.4" height="265.4"/>
<rect x="-1078.9" y="-752.8" class="st5" width="108" height="103.5"/>
<rect x="-1055.8" y="-776.2" class="st5" width="61.7" height="25.1"/>
<polygon class="st2" points="-1088.2,-871.1 -1083.6,-1009.5 -1078.8,-871.1 "/>
<g>
	<circle class="st2" cx="-897.3" cy="-984.5" r="33.6"/>
	<ellipse class="st2" cx="-841.3" cy="-998.2" rx="42.8" ry="49.1"/>
	<ellipse class="st2" cx="-782.3" cy="-983.6" rx="32.6" ry="34.5"/>
	<ellipse class="st2" cx="-931.4" cy="-967.3" rx="17.8" ry="16.4"/>
	<polygon class="st2" points="-932,-950.9 -782.3,-949.1 -844.1,-998.2 	"/>
</g>
<rect x="-1103.6" y="-727.6" class="st5" width="157.3" height="103.5"/>
<rect x="-1164.9" y="-652" class="st7" width="387.8" height="79.7"/>
<rect x="-1231.1" y="-727.6" class="st4" width="108" height="155.3"/>
<rect x="-1407.1" y="-653.3" class="st7" width="176" height="79.7"/>
<rect x="-1323" y="-831.5" class="st8" width="22.9" height="22.9"/>
<rect x="-1228.4" y="-831.5" class="st8" width="22.9" height="22.9"/>
<rect x="-1275.7" y="-831.5" class="st8" width="22.9" height="22.9"/>
<rect x="-1323" y="-795.1" class="st2" width="22.9" height="22.9"/>
<rect x="-1228.4" y="-795.1" class="st8" width="22.9" height="22.9"/>
<rect x="-1275.7" y="-795.1" class="st8" width="22.9" height="22.9"/>
<rect x="-1323" y="-758.7" class="st8" width="22.9" height="22.9"/>
<rect x="-1228.4" y="-758.7" class="st8" width="22.9" height="22.9"/>
<rect x="-1275.7" y="-758.7" class="st2" width="22.9" height="22.9"/>
<rect x="-1323" y="-722.3" class="st8" width="22.9" height="22.9"/>
<rect x="-1275.7" y="-722.3" class="st8" width="22.9" height="22.9"/>
<rect x="-1323" y="-686" class="st2" width="22.9" height="22.9"/>
<rect x="-1275.7" y="-686" class="st8" width="22.9" height="22.9"/>
<rect x="-1228.4" y="-867.9" class="st8" width="22.9" height="22.9"/>
<rect x="-1275.7" y="-867.9" class="st8" width="22.9" height="22.9"/>
<rect x="-1228.4" y="-977" class="st8" width="22.9" height="22.9"/>
<rect x="-1228.4" y="-940.6" class="st8" width="22.9" height="22.9"/>
<rect x="-1275.7" y="-940.6" class="st2" width="22.9" height="22.9"/>
<rect x="-1228.4" y="-904.2" class="st8" width="22.9" height="22.9"/>
<rect x="-1275.7" y="-904.2" class="st8" width="22.9" height="22.9"/>
<rect x="-1323" y="-867.9" class="st2" width="22.9" height="22.9"/>
<rect x="-733.9" y="-771.3" class="st4" width="7" height="197.7"/>
<rect x="-723.2" y="-771.3" class="st4" width="7" height="197.7"/>
<rect x="-712.6" y="-771.3" class="st4" width="7" height="197.7"/>
<rect x="-701.9" y="-771.3" class="st4" width="7" height="197.7"/>
<rect x="-691.3" y="-771.3" class="st4" width="7" height="197.7"/>
<rect x="-680.6" y="-771.3" class="st4" width="7" height="197.7"/>
<rect x="-558.3" y="-764.9" class="st2" width="7" height="192.4"/>
<rect x="-547.7" y="-764.9" class="st2" width="7" height="192.4"/>
<rect x="-537" y="-764.9" class="st2" width="7" height="192.4"/>
<rect x="-526.4" y="-764.9" class="st2" width="7" height="192.4"/>
<rect x="-515.7" y="-764.9" class="st2" width="7" height="192.4"/>
<rect x="-505.1" y="-764.9" class="st2" width="7" height="192.4"/>
<rect x="-494.4" y="-764.9" class="st2" width="7" height="192.4"/>
<rect x="-483.8" y="-764.9" class="st2" width="7" height="192.4"/>
<rect x="-600.8" y="-764.9" class="st2" width="7" height="192.4"/>
<rect x="-590.1" y="-764.9" class="st2" width="7" height="192.4"/>
<rect x="-579.5" y="-764.9" class="st2" width="7" height="192.4"/>
<rect x="-568.8" y="-764.9" class="st2" width="7" height="192.4"/>
<rect x="-473.1" y="-764.9" class="st2" width="7" height="192.4"/>
<rect x="-462.5" y="-764.9" class="st2" width="7" height="192.4"/>
<rect x="-451.9" y="-764.9" class="st2" width="7" height="192.4"/>
<rect x="-441.2" y="-764.9" class="st2" width="7" height="192.4"/>
<rect x="-625.5" y="-699.1" class="st3" width="61.7" height="25.1"/>
<rect x="-648.7" y="-675.8" class="st3" width="108" height="103.5"/>
<rect x="-631.5" y="-639" class="st8" width="14.4" height="14.4"/>
<rect x="-572.2" y="-639" class="st8" width="14.4" height="14.4"/>
<rect x="-601.8" y="-639" class="st8" width="14.4" height="14.4"/>
<rect x="-631.5" y="-616.2" class="st2" width="14.4" height="14.4"/>
<rect x="-572.2" y="-616.2" class="st8" width="14.4" height="14.4"/>
<rect x="-601.8" y="-616.2" class="st8" width="14.4" height="14.4"/>
<rect x="-572.2" y="-661.9" class="st8" width="14.4" height="14.4"/>
<rect x="-601.8" y="-661.9" class="st8" width="14.4" height="14.4"/>
<rect x="-631.5" y="-661.9" class="st2" width="14.4" height="14.4"/>
<rect x="-587" y="-693" class="st2" width="14.4" height="14.4"/>
<rect x="-616.7" y="-693" class="st2" width="14.4" height="14.4"/>
<rect x="-1103.1" y="-602.3" class="st3" width="308.6" height="22.9"/>
<rect x="-1008.5" y="-638.6" class="st3" width="22.9" height="22.9"/>
<rect x="-1055.8" y="-638.6" class="st3" width="22.9" height="22.9"/>
<rect x="-1103.1" y="-638.6" class="st3" width="22.9" height="22.9"/>
<rect x="-914" y="-638.6" class="st3" width="22.9" height="22.9"/>
<rect x="-961.2" y="-638.6" class="st3" width="22.9" height="22.9"/>
<rect x="-866.7" y="-638.6" class="st3" width="22.9" height="22.9"/>
<rect x="-819.4" y="-638.6" class="st3" width="22.9" height="22.9"/>
<rect x="-1381.7" y="-602.3" class="st3" width="117.4" height="22.9"/>
<rect x="-1381.7" y="-638.6" class="st3" width="22.9" height="22.9"/>
<rect x="-1334.4" y="-638.6" class="st3" width="22.9" height="22.9"/>
<rect x="-1287.2" y="-638.6" class="st3" width="22.9" height="22.9"/>
<rect x="-942.5" y="-790.8" class="st8" width="14.4" height="14.4"/>
<rect x="-912.8" y="-790.8" class="st8" width="14.4" height="14.4"/>
<rect x="-942.5" y="-768" class="st2" width="14.4" height="14.4"/>
<rect x="-912.8" y="-768" class="st8" width="14.4" height="14.4"/>
<rect x="-912.8" y="-813.6" class="st8" width="14.4" height="14.4"/>
<rect x="-942.5" y="-813.6" class="st2" width="14.4" height="14.4"/>
<rect x="-942.5" y="-745.1" class="st2" width="14.4" height="14.4"/>
<rect x="-912.8" y="-745.1" class="st8" width="14.4" height="14.4"/>
<rect x="-942.5" y="-721.7" class="st8" width="14.4" height="14.4"/>
<rect x="-912.8" y="-721.7" class="st8" width="14.4" height="14.4"/>
<rect x="-942.5" y="-698.8" class="st2" width="14.4" height="14.4"/>
<rect x="-912.8" y="-698.8" class="st8" width="14.4" height="14.4"/>
<rect x="-942.5" y="-676" class="st2" width="14.4" height="14.4"/>
<rect x="-912.8" y="-676" class="st8" width="14.4" height="14.4"/>
<rect x="-883.1" y="-745.1" class="st8" width="39.3" height="14.4"/>
<rect x="-883.1" y="-721.7" class="st2" width="39.3" height="14.4"/>
<rect x="-883.1" y="-768" class="st8" width="14.4" height="14.4"/>
<rect x="-883.1" y="-698.8" class="st8" width="39.3" height="14.4"/>
<rect x="-883.1" y="-676" class="st8" width="39.3" height="14.4"/>
<rect x="-1164.9" y="-640.8" class="st2" width="22.9" height="22.9"/>
<rect x="-1212.2" y="-640.8" class="st5" width="22.9" height="22.9"/>
<rect x="-1164.9" y="-604.4" class="st5" width="22.9" height="22.9"/>
<rect x="-1212.2" y="-604.4" class="st2" width="22.9" height="22.9"/>
<rect x="-1164.9" y="-677.1" class="st5" width="22.9" height="22.9"/>
<rect x="-1212.2" y="-677.1" class="st2" width="22.9" height="22.9"/>
<rect x="-1164.9" y="-713.5" class="st2" width="22.9" height="22.9"/>
<rect x="-1212.2" y="-713.5" class="st2" width="22.9" height="22.9"/>
<rect x="-1090.6" y="-663.9" class="st2" width="131.3" height="7"/>
<rect x="-1090.6" y="-674.5" class="st2" width="131.3" height="7"/>
<rect x="-1090.6" y="-685.1" class="st2" width="131.3" height="7"/>
<rect x="-1090.6" y="-695.8" class="st2" width="131.3" height="7"/>
<rect x="-1090.6" y="-706.4" class="st2" width="131.3" height="7"/>
<rect x="-1090.6" y="-717.1" class="st2" width="131.3" height="7"/>
<circle class="st7" cx="-428.3" cy="-991.7" r="50"/>
<polygon class="st6" points="-777.2,-903.1 -791.7,-903.1 -784.4,-977.5 -777.2,-1052 -769.9,-977.5 -762.6,-903.1 "/>
<text transform="matrix(1 0 0 1 -755.6957 -1389.1321)" class="st3" style="font-family:'Raleway-Bold'; font-size:116px;">GRACE KAMPA</text>
<text transform="matrix(1 0 0 1 -743.6957 -1395.1321)" class="st2" style="font-family:'Raleway-Bold'; font-size:116px;">GRACE KAMPA</text>
<rect x="1250.4" y="-119.6" class="st4" width="1280" height="800"/>
<rect x="1379.2" y="131" class="st12" width="1028.6" height="121.2"/>
<text transform="matrix(1 0 0 1 1760.1866 40.844)" class="st6" style="font-family:'Raleway-Bold'; font-size:116px;">skills</text>
<rect x="1379.2" y="116.8" class="st5" width="1028.6" height="121.2"/>
<text transform="matrix(1 0 0 1 1406.1759 191.6262)" class="st3" style="font-family:'Raleway-Bold'; font-size:40px;">languages</text>
<rect x="2597.5" y="-923.5" class="st5" width="1280" height="800"/>
<rect x="2595.5" y="684.6" class="st3" width="1280" height="800"/>
<g>
	<text transform="matrix(1 0 0 1 3073.5032 -780.1194)" class="st2" style="font-family:'Raleway-Bold'; font-size:116px;">about</text>
</g>
<circle class="st10" cx="2762" cy="1094" r="92.3"/>
<circle class="st10" cx="3217.8" cy="1094" r="92.3"/>
<text transform="matrix(1 0 0 1 2660.6221 1263.3431)" class="st7" style="font-family:'Raleway'; font-size:61.5534px;">puzzles</text>
<circle class="st10" cx="3673.7" cy="1094" r="92.3"/>
<text transform="matrix(1 0 0 1 3139.439 1263.3431)" class="st7" style="font-family:'Raleway'; font-size:61.5534px;">hiking</text>
<text transform="matrix(1 0 0 1 3526.0474 1263.3431)" class="st7" style="font-family:'Raleway'; font-size:61.5534px;">mud races</text>
<polygon class="st4" points="3159.6,1139.9 3200.3,1048.2 3239.5,1139.9 "/>
<polygon class="st6" points="3215.1,1139.9 3241.8,1094 3269.2,1139.9 "/>
<g>
	<circle class="st7" cx="3236.5" cy="1062.9" r="12.2"/>
	<ellipse class="st7" cx="3256.8" cy="1057.9" rx="15.5" ry="17.8"/>
	<ellipse class="st7" cx="3278.2" cy="1063.2" rx="11.8" ry="12.5"/>
	<ellipse class="st7" cx="3224.1" cy="1069.2" rx="6.5" ry="5.9"/>
	<polygon class="st7" points="3223.9,1075.1 3278.2,1075.8 3255.8,1057.9 	"/>
</g>
<rect x="2709.5" y="1041.5" class="st5" width="104.9" height="104.9"/>
<ellipse class="st5" cx="2762.2" cy="1145.9" rx="17.7" ry="21.8"/>
<ellipse class="st10" cx="2762.2" cy="1041.1" rx="17.7" ry="21.8"/>
<ellipse class="st5" cx="2813.8" cy="1094.3" rx="21.8" ry="17.7"/>
<ellipse class="st5" cx="2709" cy="1094.3" rx="21.8" ry="17.7"/>
<polygon class="st5" points="3704.4,1044.1 3756.6,1091.8 3686.9,1081.6 "/>
<line class="st11" x1="3704.6" y1="1044.6" x2="3656.7" y2="1145.7"/>
<polygon class="st5" points="3644.6,1044.1 3592.5,1091.8 3662.1,1081.6 "/>
<line class="st11" x1="3644.5" y1="1044.6" x2="3693.8" y2="1145.7"/>
<g>
	<text transform="matrix(1 0 0 1 2990.9548 833.8535)" class="st2" style="font-family:'Raleway-Bold'; font-size:116px;">interests</text>
</g>
<polygon class="st13" points="2335.7,200.7 2369.7,168.9 2352.7,184.8 2335.7,200.7 2318.7,184.8 2301.7,168.9 "/>
<rect x="1379.2" y="315" class="st12" width="1028.6" height="326.9"/>
<rect x="1379.2" y="314.8" class="st5" width="1028.6" height="310.7"/>
<text transform="matrix(1 0 0 1 1406.1759 389.6262)" class="st3" style="font-family:'Raleway-Bold'; font-size:40px;">languages</text>
<polygon class="st13" points="2335.7,366.9 2369.7,398.7 2352.7,382.8 2335.7,366.9 2318.7,382.8 2301.7,398.7 "/>
<text transform="matrix(1 0 0 1 1405.1759 507.1885)"><tspan x="0" y="0" style="fill:#F2F2F2; font-family:'Raleway-Bold'; font-size:40px;">proficient in: </tspan><tspan x="246.8" y="0" style="fill:#F2F2F2; font-family:'Raleway'; font-size:40px;">Java, HTML/CSS, JavaScript</tspan></text>
<text transform="matrix(1 0 0 1 1405.1759 590.1885)"><tspan x="0" y="0" style="fill:#F2F2F2; font-family:'Raleway-Bold'; font-size:40px;">familiar with: </tspan><tspan x="259.2" y="0" style="fill:#F2F2F2; font-family:'Raleway'; font-size:40px;">jQuery, C, Python</tspan></text>
<polygon class="st13" points="36.7,34.7 70.7,2.9 53.7,18.8 36.7,34.7 19.7,18.8 2.7,2.9 "/>
<polygon class="st13" points="36.7,240.9 70.7,272.7 53.7,256.8 36.7,240.9 19.7,256.8 2.7,272.7 "/>
</svg>
