<?xml version="1.0" encoding="utf-8"?>
<!-- Generator: Adobe Illustrator 19.1.0, SVG Export Plug-In . SVG Version: 6.00 Build 0)  -->
<svg version="1.1" id="Layer_1" xmlns="http://www.w3.org/2000/svg" xmlns:xlink="http://www.w3.org/1999/xlink" x="0px" y="0px"
	 viewBox="0 0 73.5 40.2" style="enable-background:new 0 0 73.5 40.2;" xml:space="preserve">
<style type="text/css">
	.st0{fill:#00CED1;}
	.st1{fill:#1A1A1A;}
	.st2{fill:#D4E8BB;}
	.st3{fill:#273D4E;}
	.st4{fill:#00D563;}
	.st5{fill:#F27470;}
	.st6{fill:#006B32;}
	.st7{fill:#F9BF3B;}
	.st8{fill:#50C8B0;}
	.st9{fill:#5D5D5D;}
	.st10{fill:#EBF0F4;}
	.st11{fill:none;stroke:#BB8F2C;stroke-width:3;stroke-miterlimit:10;}
	.st12{fill:#B55754;}
	.st13{fill:none;stroke:#273D4E;stroke-width:8;stroke-miterlimit:10;}
</style>
<rect x="5253.5" y="-2752.5" class="st0" width="1280" height="800"/>
<g>
	<path class="st1" d="M6408.8-2195.4c0,15.7-13,28.5-29,28.5H5371.3c-15.9,0-29-12.8-29-28.5c0-15.7,13.1-28.5,29-28.5h1008.4
		C6395.7-2223.9,6408.8-2211.1,6408.8-2195.4z"/>
</g>
<g>
	<path class="st1" d="M6412.5-2139.4c0,15.7-13.1,28.5-29,28.5H5375c-16,0-29-12.8-29-28.5c0-15.7,13-28.5,29-28.5h1008.4
		C6399.4-2167.9,6412.5-2155.1,6412.5-2139.4z"/>
</g>
<g>
	<path class="st0" d="M5744.4-2138.4c0,15.7-13.1,28.5-29,28.5h-392c-15.9,0-29-12.8-29-28.5c0-15.7,13.1-28.5,29-28.5h392
		C5731.3-2166.9,5744.4-2154.1,5744.4-2138.4z"/>
</g>
<g>
	<path class="st0" d="M6519.2-2138.4c0,15.7-13,28.5-29,28.5h-447.1c-16,0-29-12.8-29-28.5c0-15.7,13-28.5,29-28.5h447.1
		C6506.2-2166.9,6519.2-2154.1,6519.2-2138.4z"/>
</g>
<g>
	<path class="st1" d="M6200.3-2083.4c0,15.7-13.1,28.5-29,28.5h-744.5c-16,0-29-12.8-29-28.5c0-15.7,13-28.5,29-28.5h744.5
		C6187.3-2111.9,6200.3-2099.1,6200.3-2083.4z"/>
</g>
<g>
	<path class="st1" d="M6382.3-2083.4c0,15.7-13.1,28.5-29,28.5h-74c-15.9,0-29-12.8-29-28.5c0-15.7,13.1-28.5,29-28.5h74
		C6369.2-2111.9,6382.3-2099.1,6382.3-2083.4z"/>
</g>
<rect x="5631.1" y="-2472" class="st2" width="108" height="207.1"/>
<rect x="5685.5" y="-2526.6" class="st2" width="53.6" height="55.8"/>
<polygon class="st3" points="5606.7,-2225.1 5448.7,-2225.1 5448.7,-2492.2 5513.4,-2643.1 5606.7,-2643.1 "/>
<polygon class="st3" points="5837.7,-2221.3 5970.4,-2221.3 5970.4,-2386.6 5904,-2479.9 5837.7,-2479.9 "/>
<rect x="6004.1" y="-2562.3" class="st4" width="176.4" height="338.3"/>
<polygon class="st5" points="6367.9,-2223.7 6192.9,-2223.7 6192.9,-2438 6236.6,-2498.4 6324.8,-2498.7 6367.9,-2438.6 "/>
<polygon class="st4" points="6165.9,-2554.5 6151.3,-2554.5 6158.6,-2629 6165.9,-2703.4 6173.1,-2629 6180.4,-2554.5 "/>
<rect x="5991.6" y="-2493.5" class="st4" width="201.2" height="269.6"/>
<rect x="6034.5" y="-2562.3" class="st6" width="116.8" height="120.8"/>
<rect x="6051.9" y="-2467.8" class="st4" width="80.8" height="243.8"/>
<rect x="6072.7" y="-2489.3" class="st4" width="40.4" height="265.4"/>
<rect x="5717.1" y="-2404.3" class="st5" width="108" height="103.5"/>
<rect x="5740.2" y="-2427.6" class="st5" width="61.7" height="25.1"/>
<rect x="6555.1" y="-2388" class="st3" width="860.2" height="49.6"/>
<polygon class="st7" points="6629.8,-2081.5 6665.7,-2149.5 6702.7,-2081.5 "/>
<polygon class="st2" points="5707.8,-2522.5 5712.4,-2661 5717.2,-2522.5 "/>
<g>
	<circle class="st2" cx="5898.7" cy="-2636" r="33.6"/>
	<ellipse class="st2" cx="5954.7" cy="-2649.6" rx="42.8" ry="49.1"/>
	<ellipse class="st2" cx="6013.7" cy="-2635.1" rx="32.6" ry="34.5"/>
	<ellipse class="st2" cx="5864.6" cy="-2618.7" rx="17.8" ry="16.4"/>
	<polygon class="st2" points="5864,-2602.4 6013.7,-2600.6 5951.9,-2649.6 	"/>
</g>
<rect x="5692.4" y="-2379" class="st5" width="157.3" height="103.5"/>
<rect x="5631.1" y="-2303.4" class="st7" width="387.8" height="79.7"/>
<rect x="5564.9" y="-2379" class="st4" width="108" height="155.3"/>
<rect x="5388.9" y="-2304.7" class="st7" width="176" height="79.7"/>
<rect x="5397.8" y="-2203.4" class="st2" width="61.9" height="16"/>
<rect x="5506.9" y="-2203.4" class="st2" width="61.9" height="16"/>
<rect x="5615.9" y="-2203.4" class="st2" width="61.9" height="16"/>
<rect x="5725" y="-2203.4" class="st2" width="61.9" height="16"/>
<rect x="5834" y="-2203.4" class="st2" width="61.9" height="16"/>
<rect x="5946.8" y="-2203.4" class="st2" width="61.9" height="16"/>
<rect x="6055.9" y="-2203.4" class="st2" width="61.9" height="16"/>
<rect x="6164.9" y="-2203.4" class="st2" width="61.9" height="16"/>
<rect x="6273.9" y="-2203.4" class="st2" width="61.9" height="16"/>
<rect x="5473" y="-2482.9" class="st8" width="22.9" height="22.9"/>
<rect x="5567.6" y="-2482.9" class="st8" width="22.9" height="22.9"/>
<rect x="5520.3" y="-2482.9" class="st8" width="22.9" height="22.9"/>
<rect x="5473" y="-2446.5" class="st2" width="22.9" height="22.9"/>
<rect x="5567.6" y="-2446.5" class="st8" width="22.9" height="22.9"/>
<rect x="5520.3" y="-2446.5" class="st8" width="22.9" height="22.9"/>
<rect x="5473" y="-2410.2" class="st8" width="22.9" height="22.9"/>
<rect x="5567.6" y="-2410.2" class="st8" width="22.9" height="22.9"/>
<rect x="5520.3" y="-2410.2" class="st2" width="22.9" height="22.9"/>
<rect x="5473" y="-2373.8" class="st8" width="22.9" height="22.9"/>
<rect x="5520.3" y="-2373.8" class="st8" width="22.9" height="22.9"/>
<rect x="5473" y="-2337.4" class="st2" width="22.9" height="22.9"/>
<rect x="5520.3" y="-2337.4" class="st8" width="22.9" height="22.9"/>
<rect x="5567.6" y="-2519.3" class="st8" width="22.9" height="22.9"/>
<rect x="5520.3" y="-2519.3" class="st8" width="22.9" height="22.9"/>
<rect x="5567.6" y="-2628.4" class="st8" width="22.9" height="22.9"/>
<rect x="5567.6" y="-2592.1" class="st8" width="22.9" height="22.9"/>
<rect x="5520.3" y="-2592.1" class="st2" width="22.9" height="22.9"/>
<rect x="5567.6" y="-2555.7" class="st8" width="22.9" height="22.9"/>
<rect x="5520.3" y="-2555.7" class="st8" width="22.9" height="22.9"/>
<rect x="5473" y="-2519.3" class="st2" width="22.9" height="22.9"/>
<rect x="6062.1" y="-2422.7" class="st6" width="7" height="197.7"/>
<rect x="6072.8" y="-2422.7" class="st6" width="7" height="197.7"/>
<rect x="6083.4" y="-2422.7" class="st6" width="7" height="197.7"/>
<rect x="6094.1" y="-2422.7" class="st6" width="7" height="197.7"/>
<rect x="6104.7" y="-2422.7" class="st6" width="7" height="197.7"/>
<rect x="6115.4" y="-2422.7" class="st6" width="7" height="197.7"/>
<rect x="6237.7" y="-2416.4" class="st2" width="7" height="192.4"/>
<rect x="6248.3" y="-2416.4" class="st2" width="7" height="192.4"/>
<rect x="6259" y="-2416.4" class="st2" width="7" height="192.4"/>
<rect x="6269.6" y="-2416.4" class="st2" width="7" height="192.4"/>
<rect x="6280.3" y="-2416.4" class="st2" width="7" height="192.4"/>
<rect x="6290.9" y="-2416.4" class="st2" width="7" height="192.4"/>
<rect x="6301.6" y="-2416.4" class="st2" width="7" height="192.4"/>
<rect x="6312.2" y="-2416.4" class="st2" width="7" height="192.4"/>
<rect x="6195.2" y="-2416.4" class="st2" width="7" height="192.4"/>
<rect x="6205.9" y="-2416.4" class="st2" width="7" height="192.4"/>
<rect x="6216.5" y="-2416.4" class="st2" width="7" height="192.4"/>
<rect x="6227.2" y="-2416.4" class="st2" width="7" height="192.4"/>
<rect x="6322.9" y="-2416.4" class="st2" width="7" height="192.4"/>
<rect x="6333.5" y="-2416.4" class="st2" width="7" height="192.4"/>
<rect x="6344.1" y="-2416.4" class="st2" width="7" height="192.4"/>
<rect x="6354.8" y="-2416.4" class="st2" width="7" height="192.4"/>
<rect x="6170.5" y="-2350.6" class="st3" width="61.7" height="25.1"/>
<rect x="6147.3" y="-2327.2" class="st3" width="108" height="103.5"/>
<rect x="6164.5" y="-2290.5" class="st8" width="14.4" height="14.4"/>
<rect x="6223.8" y="-2290.5" class="st8" width="14.4" height="14.4"/>
<rect x="6194.2" y="-2290.5" class="st8" width="14.4" height="14.4"/>
<rect x="6164.5" y="-2267.6" class="st2" width="14.4" height="14.4"/>
<rect x="6223.8" y="-2267.6" class="st8" width="14.4" height="14.4"/>
<rect x="6194.2" y="-2267.6" class="st8" width="14.4" height="14.4"/>
<rect x="6223.8" y="-2313.3" class="st8" width="14.4" height="14.4"/>
<rect x="6194.2" y="-2313.3" class="st8" width="14.4" height="14.4"/>
<rect x="6164.5" y="-2313.3" class="st2" width="14.4" height="14.4"/>
<rect x="6209" y="-2344.4" class="st2" width="14.4" height="14.4"/>
<rect x="6179.3" y="-2344.4" class="st2" width="14.4" height="14.4"/>
<rect x="6164.5" y="-2244.8" class="st2" width="14.4" height="14.4"/>
<rect x="6223.8" y="-2244.8" class="st2" width="14.4" height="14.4"/>
<rect x="6194.2" y="-2244.8" class="st8" width="14.4" height="14.4"/>
<rect x="5692.9" y="-2253.7" class="st3" width="308.6" height="22.9"/>
<rect x="5787.5" y="-2290.1" class="st3" width="22.9" height="22.9"/>
<rect x="5740.2" y="-2290.1" class="st3" width="22.9" height="22.9"/>
<rect x="5692.9" y="-2290.1" class="st3" width="22.9" height="22.9"/>
<rect x="5882" y="-2290.1" class="st3" width="22.9" height="22.9"/>
<rect x="5834.8" y="-2290.1" class="st3" width="22.9" height="22.9"/>
<rect x="5929.3" y="-2290.1" class="st3" width="22.9" height="22.9"/>
<rect x="5976.6" y="-2290.1" class="st3" width="22.9" height="22.9"/>
<rect x="5414.3" y="-2253.7" class="st3" width="117.4" height="22.9"/>
<rect x="5414.3" y="-2290.1" class="st3" width="22.9" height="22.9"/>
<rect x="5461.6" y="-2290.1" class="st3" width="22.9" height="22.9"/>
<rect x="5508.8" y="-2290.1" class="st3" width="22.9" height="22.9"/>
<rect x="5853.5" y="-2442.3" class="st8" width="14.4" height="14.4"/>
<rect x="5883.2" y="-2442.3" class="st8" width="14.4" height="14.4"/>
<rect x="5853.5" y="-2419.4" class="st2" width="14.4" height="14.4"/>
<rect x="5883.2" y="-2419.4" class="st8" width="14.4" height="14.4"/>
<rect x="5883.2" y="-2465.1" class="st8" width="14.4" height="14.4"/>
<rect x="5853.5" y="-2465.1" class="st2" width="14.4" height="14.4"/>
<rect x="5853.5" y="-2396.6" class="st2" width="14.4" height="14.4"/>
<rect x="5883.2" y="-2396.6" class="st8" width="14.4" height="14.4"/>
<rect x="5853.5" y="-2373.1" class="st8" width="14.4" height="14.4"/>
<rect x="5883.2" y="-2373.1" class="st8" width="14.4" height="14.4"/>
<rect x="5853.5" y="-2350.3" class="st2" width="14.4" height="14.4"/>
<rect x="5883.2" y="-2350.3" class="st8" width="14.4" height="14.4"/>
<rect x="5853.5" y="-2327.5" class="st2" width="14.4" height="14.4"/>
<rect x="5883.2" y="-2327.5" class="st8" width="14.4" height="14.4"/>
<rect x="5912.9" y="-2396.6" class="st8" width="39.3" height="14.4"/>
<rect x="5912.9" y="-2373.1" class="st2" width="39.3" height="14.4"/>
<rect x="5912.9" y="-2419.4" class="st8" width="14.4" height="14.4"/>
<rect x="5912.9" y="-2350.3" class="st8" width="39.3" height="14.4"/>
<rect x="5912.9" y="-2327.5" class="st8" width="39.3" height="14.4"/>
<rect x="5631.1" y="-2292.2" class="st2" width="22.9" height="22.9"/>
<rect x="5583.8" y="-2292.2" class="st5" width="22.9" height="22.9"/>
<rect x="5631.1" y="-2255.8" class="st5" width="22.9" height="22.9"/>
<rect x="5583.8" y="-2255.8" class="st2" width="22.9" height="22.9"/>
<rect x="5631.1" y="-2328.6" class="st5" width="22.9" height="22.9"/>
<rect x="5583.8" y="-2328.6" class="st2" width="22.9" height="22.9"/>
<rect x="5631.1" y="-2365" class="st2" width="22.9" height="22.9"/>
<rect x="5583.8" y="-2365" class="st2" width="22.9" height="22.9"/>
<rect x="5705.4" y="-2315.3" class="st2" width="131.3" height="7"/>
<rect x="5705.4" y="-2325.9" class="st2" width="131.3" height="7"/>
<rect x="5705.4" y="-2336.6" class="st2" width="131.3" height="7"/>
<rect x="5705.4" y="-2347.2" class="st2" width="131.3" height="7"/>
<rect x="5705.4" y="-2357.9" class="st2" width="131.3" height="7"/>
<rect x="5705.4" y="-2368.5" class="st2" width="131.3" height="7"/>
<circle class="st7" cx="6367.7" cy="-2643.1" r="50"/>
<polygon class="st4" points="6018.8,-2554.5 6004.3,-2554.5 6011.6,-2629 6018.8,-2703.4 6026.1,-2629 6033.4,-2554.5 "/>
<rect x="5255.5" y="-1924.5" class="st0" width="1280" height="800"/>
<g>
	<path class="st1" d="M6410.8-1367.4c0,15.7-13,28.5-29,28.5H5373.3c-15.9,0-29-12.8-29-28.5s13.1-28.5,29-28.5h1008.4
		C6397.7-1395.9,6410.8-1383.1,6410.8-1367.4z"/>
</g>
<g>
	<path class="st1" d="M6414.5-1311.4c0,15.7-13.1,28.5-29,28.5H5377c-16,0-29-12.8-29-28.5c0-15.7,13-28.5,29-28.5h1008.4
		C6401.4-1339.9,6414.5-1327.1,6414.5-1311.4z"/>
</g>
<g>
	<path class="st0" d="M5746.4-1310.4c0,15.7-13.1,28.5-29,28.5h-392c-15.9,0-29-12.8-29-28.5c0-15.7,13.1-28.5,29-28.5h392
		C5733.3-1338.9,5746.4-1326.1,5746.4-1310.4z"/>
</g>
<g>
	<path class="st0" d="M6521.2-1310.4c0,15.7-13,28.5-29,28.5h-447.1c-16,0-29-12.8-29-28.5c0-15.7,13-28.5,29-28.5h447.1
		C6508.2-1338.9,6521.2-1326.1,6521.2-1310.4z"/>
</g>
<g>
	<path class="st1" d="M6202.3-1255.4c0,15.7-13.1,28.5-29,28.5h-744.5c-16,0-29-12.8-29-28.5s13-28.5,29-28.5h744.5
		C6189.3-1283.9,6202.3-1271.1,6202.3-1255.4z"/>
</g>
<g>
	<path class="st1" d="M6384.3-1255.4c0,15.7-13.1,28.5-29,28.5h-74c-15.9,0-29-12.8-29-28.5s13.1-28.5,29-28.5h74
		C6371.2-1283.9,6384.3-1271.1,6384.3-1255.4z"/>
</g>
<rect x="5633.1" y="-1644" class="st2" width="108" height="207.1"/>
<rect x="5687.5" y="-1698.6" class="st2" width="53.6" height="55.8"/>
<polygon class="st3" points="5608.7,-1397.1 5450.7,-1397.1 5450.7,-1664.2 5515.4,-1815.1 5608.7,-1815.1 "/>
<polygon class="st3" points="5839.7,-1393.3 5972.4,-1393.3 5972.4,-1558.6 5906,-1651.9 5839.7,-1651.9 "/>
<rect x="6006.1" y="-1734.3" class="st6" width="176.4" height="338.3"/>
<polygon class="st5" points="6369.9,-1395.7 6194.9,-1395.7 6194.9,-1610 6238.6,-1670.4 6326.8,-1670.7 6369.9,-1610.6 "/>
<polygon class="st6" points="6167.9,-1726.5 6153.3,-1726.5 6160.6,-1801 6167.9,-1875.4 6175.1,-1801 6182.4,-1726.5 "/>
<rect x="5993.6" y="-1665.5" class="st6" width="201.2" height="269.6"/>
<rect x="6036.5" y="-1734.3" class="st4" width="116.8" height="120.8"/>
<rect x="6053.9" y="-1639.8" class="st6" width="80.8" height="243.8"/>
<rect x="6074.7" y="-1661.3" class="st6" width="40.4" height="265.4"/>
<rect x="5719.1" y="-1576.3" class="st5" width="108" height="103.5"/>
<rect x="5742.2" y="-1599.6" class="st5" width="61.7" height="25.1"/>
<polygon class="st2" points="5709.8,-1694.5 5714.4,-1833 5719.2,-1694.5 "/>
<g>
	<circle class="st2" cx="5900.7" cy="-1808" r="33.6"/>
	<ellipse class="st2" cx="5956.7" cy="-1821.6" rx="42.8" ry="49.1"/>
	<ellipse class="st2" cx="6015.7" cy="-1807.1" rx="32.6" ry="34.5"/>
	<ellipse class="st2" cx="5866.6" cy="-1790.7" rx="17.8" ry="16.4"/>
	<polygon class="st2" points="5866,-1774.4 6015.7,-1772.6 5953.9,-1821.6 	"/>
</g>
<rect x="5694.4" y="-1551" class="st5" width="157.3" height="103.5"/>
<rect x="5633.1" y="-1475.4" class="st7" width="387.8" height="79.7"/>
<rect x="5566.9" y="-1551" class="st4" width="108" height="155.3"/>
<rect x="5390.9" y="-1476.7" class="st7" width="176" height="79.7"/>
<rect x="5399.8" y="-1375.4" class="st2" width="61.9" height="16"/>
<rect x="5508.9" y="-1375.4" class="st2" width="61.9" height="16"/>
<rect x="5617.9" y="-1375.4" class="st2" width="61.9" height="16"/>
<rect x="5727" y="-1375.4" class="st2" width="61.9" height="16"/>
<rect x="5836" y="-1375.4" class="st2" width="61.9" height="16"/>
<rect x="5948.8" y="-1375.4" class="st2" width="61.9" height="16"/>
<rect x="6057.9" y="-1375.4" class="st2" width="61.9" height="16"/>
<rect x="6166.9" y="-1375.4" class="st2" width="61.9" height="16"/>
<rect x="6275.9" y="-1375.4" class="st2" width="61.9" height="16"/>
<rect x="5475" y="-1654.9" class="st8" width="22.9" height="22.9"/>
<rect x="5569.6" y="-1654.9" class="st8" width="22.9" height="22.9"/>
<rect x="5522.3" y="-1654.9" class="st8" width="22.9" height="22.9"/>
<rect x="5475" y="-1618.5" class="st2" width="22.9" height="22.9"/>
<rect x="5569.6" y="-1618.5" class="st8" width="22.9" height="22.9"/>
<rect x="5522.3" y="-1618.5" class="st8" width="22.9" height="22.9"/>
<rect x="5475" y="-1582.2" class="st8" width="22.9" height="22.9"/>
<rect x="5569.6" y="-1582.2" class="st8" width="22.9" height="22.9"/>
<rect x="5522.3" y="-1582.2" class="st2" width="22.9" height="22.9"/>
<rect x="5475" y="-1545.8" class="st8" width="22.9" height="22.9"/>
<rect x="5522.3" y="-1545.8" class="st8" width="22.9" height="22.9"/>
<rect x="5475" y="-1509.4" class="st2" width="22.9" height="22.9"/>
<rect x="5522.3" y="-1509.4" class="st8" width="22.9" height="22.9"/>
<rect x="5569.6" y="-1691.3" class="st8" width="22.9" height="22.9"/>
<rect x="5522.3" y="-1691.3" class="st8" width="22.9" height="22.9"/>
<rect x="5569.6" y="-1800.4" class="st8" width="22.9" height="22.9"/>
<rect x="5569.6" y="-1764.1" class="st8" width="22.9" height="22.9"/>
<rect x="5522.3" y="-1764.1" class="st2" width="22.9" height="22.9"/>
<rect x="5569.6" y="-1727.7" class="st8" width="22.9" height="22.9"/>
<rect x="5522.3" y="-1727.7" class="st8" width="22.9" height="22.9"/>
<rect x="5475" y="-1691.3" class="st2" width="22.9" height="22.9"/>
<rect x="6064.1" y="-1594.7" class="st4" width="7" height="197.7"/>
<rect x="6074.8" y="-1594.7" class="st4" width="7" height="197.7"/>
<rect x="6085.4" y="-1594.7" class="st4" width="7" height="197.7"/>
<rect x="6096.1" y="-1594.7" class="st4" width="7" height="197.7"/>
<rect x="6106.7" y="-1594.7" class="st4" width="7" height="197.7"/>
<rect x="6117.4" y="-1594.7" class="st4" width="7" height="197.7"/>
<rect x="6239.7" y="-1588.4" class="st2" width="7" height="192.4"/>
<rect x="6250.3" y="-1588.4" class="st2" width="7" height="192.4"/>
<rect x="6261" y="-1588.4" class="st2" width="7" height="192.4"/>
<rect x="6271.6" y="-1588.4" class="st2" width="7" height="192.4"/>
<rect x="6282.3" y="-1588.4" class="st2" width="7" height="192.4"/>
<rect x="6292.9" y="-1588.4" class="st2" width="7" height="192.4"/>
<rect x="6303.6" y="-1588.4" class="st2" width="7" height="192.4"/>
<rect x="6314.2" y="-1588.4" class="st2" width="7" height="192.4"/>
<rect x="6197.2" y="-1588.4" class="st2" width="7" height="192.4"/>
<rect x="6207.9" y="-1588.4" class="st2" width="7" height="192.4"/>
<rect x="6218.5" y="-1588.4" class="st2" width="7" height="192.4"/>
<rect x="6229.2" y="-1588.4" class="st2" width="7" height="192.4"/>
<rect x="6324.9" y="-1588.4" class="st2" width="7" height="192.4"/>
<rect x="6335.5" y="-1588.4" class="st2" width="7" height="192.4"/>
<rect x="6346.1" y="-1588.4" class="st2" width="7" height="192.4"/>
<rect x="6356.8" y="-1588.4" class="st2" width="7" height="192.4"/>
<rect x="6172.5" y="-1522.6" class="st3" width="61.7" height="25.1"/>
<rect x="6149.3" y="-1499.2" class="st3" width="108" height="103.5"/>
<rect x="6166.5" y="-1462.5" class="st8" width="14.4" height="14.4"/>
<rect x="6225.8" y="-1462.5" class="st8" width="14.4" height="14.4"/>
<rect x="6196.2" y="-1462.5" class="st8" width="14.4" height="14.4"/>
<rect x="6166.5" y="-1439.6" class="st2" width="14.4" height="14.4"/>
<rect x="6225.8" y="-1439.6" class="st8" width="14.4" height="14.4"/>
<rect x="6196.2" y="-1439.6" class="st8" width="14.4" height="14.4"/>
<rect x="6225.8" y="-1485.3" class="st8" width="14.4" height="14.4"/>
<rect x="6196.2" y="-1485.3" class="st8" width="14.4" height="14.4"/>
<rect x="6166.5" y="-1485.3" class="st2" width="14.4" height="14.4"/>
<rect x="6211" y="-1516.4" class="st2" width="14.4" height="14.4"/>
<rect x="6181.3" y="-1516.4" class="st2" width="14.4" height="14.4"/>
<rect x="6166.5" y="-1416.8" class="st2" width="14.4" height="14.4"/>
<rect x="6225.8" y="-1416.8" class="st2" width="14.4" height="14.4"/>
<rect x="6196.2" y="-1416.8" class="st8" width="14.4" height="14.4"/>
<rect x="5694.9" y="-1425.7" class="st3" width="308.6" height="22.9"/>
<rect x="5789.5" y="-1462.1" class="st3" width="22.9" height="22.9"/>
<rect x="5742.2" y="-1462.1" class="st3" width="22.9" height="22.9"/>
<rect x="5694.9" y="-1462.1" class="st3" width="22.9" height="22.9"/>
<rect x="5884" y="-1462.1" class="st3" width="22.9" height="22.9"/>
<rect x="5836.8" y="-1462.1" class="st3" width="22.9" height="22.9"/>
<rect x="5931.3" y="-1462.1" class="st3" width="22.9" height="22.9"/>
<rect x="5978.6" y="-1462.1" class="st3" width="22.9" height="22.9"/>
<rect x="5416.3" y="-1425.7" class="st3" width="117.4" height="22.9"/>
<rect x="5416.3" y="-1462.1" class="st3" width="22.9" height="22.9"/>
<rect x="5463.6" y="-1462.1" class="st3" width="22.9" height="22.9"/>
<rect x="5510.8" y="-1462.1" class="st3" width="22.9" height="22.9"/>
<rect x="5855.5" y="-1614.3" class="st8" width="14.4" height="14.4"/>
<rect x="5885.2" y="-1614.3" class="st8" width="14.4" height="14.4"/>
<rect x="5855.5" y="-1591.4" class="st2" width="14.4" height="14.4"/>
<rect x="5885.2" y="-1591.4" class="st8" width="14.4" height="14.4"/>
<rect x="5885.2" y="-1637.1" class="st8" width="14.4" height="14.4"/>
<rect x="5855.5" y="-1637.1" class="st2" width="14.4" height="14.4"/>
<rect x="5855.5" y="-1568.6" class="st2" width="14.4" height="14.4"/>
<rect x="5885.2" y="-1568.6" class="st8" width="14.4" height="14.4"/>
<rect x="5855.5" y="-1545.1" class="st8" width="14.4" height="14.4"/>
<rect x="5885.2" y="-1545.1" class="st8" width="14.4" height="14.4"/>
<rect x="5855.5" y="-1522.3" class="st2" width="14.4" height="14.4"/>
<rect x="5885.2" y="-1522.3" class="st8" width="14.4" height="14.4"/>
<rect x="5855.5" y="-1499.5" class="st2" width="14.4" height="14.4"/>
<rect x="5885.2" y="-1499.5" class="st8" width="14.4" height="14.4"/>
<rect x="5914.9" y="-1568.6" class="st8" width="39.3" height="14.4"/>
<rect x="5914.9" y="-1545.1" class="st2" width="39.3" height="14.4"/>
<rect x="5914.9" y="-1591.4" class="st8" width="14.4" height="14.4"/>
<rect x="5914.9" y="-1522.3" class="st8" width="39.3" height="14.4"/>
<rect x="5914.9" y="-1499.5" class="st8" width="39.3" height="14.4"/>
<rect x="5633.1" y="-1464.2" class="st2" width="22.9" height="22.9"/>
<rect x="5585.8" y="-1464.2" class="st5" width="22.9" height="22.9"/>
<rect x="5633.1" y="-1427.8" class="st5" width="22.9" height="22.9"/>
<rect x="5585.8" y="-1427.8" class="st2" width="22.9" height="22.9"/>
<rect x="5633.1" y="-1500.6" class="st5" width="22.9" height="22.9"/>
<rect x="5585.8" y="-1500.6" class="st2" width="22.9" height="22.9"/>
<rect x="5633.1" y="-1537" class="st2" width="22.9" height="22.9"/>
<rect x="5585.8" y="-1537" class="st2" width="22.9" height="22.9"/>
<rect x="5707.4" y="-1487.3" class="st2" width="131.3" height="7"/>
<rect x="5707.4" y="-1497.9" class="st2" width="131.3" height="7"/>
<rect x="5707.4" y="-1508.6" class="st2" width="131.3" height="7"/>
<rect x="5707.4" y="-1519.2" class="st2" width="131.3" height="7"/>
<rect x="5707.4" y="-1529.9" class="st2" width="131.3" height="7"/>
<rect x="5707.4" y="-1540.5" class="st2" width="131.3" height="7"/>
<circle class="st7" cx="6369.7" cy="-1815.1" r="50"/>
<polygon class="st6" points="6020.8,-1726.5 6006.3,-1726.5 6013.6,-1801 6020.8,-1875.4 6028.1,-1801 6035.4,-1726.5 "/>
<g>
	<path class="st1" d="M6166.5-1199.5c0,15.7-13,28.5-29,28.5h-690.7c-16,0-29-12.8-29-28.5s13-28.5,29-28.5h690.7
		C6153.4-1227.9,6166.5-1215.1,6166.5-1199.5z"/>
</g>
<g>
	<path class="st0" d="M5816.2-1197.5c0,15.7-13,28.5-29,28.5h-392c-15.9,0-29-12.8-29-28.5s13.1-28.5,29-28.5h392
		C5803.1-1225.9,5816.2-1213.1,5816.2-1197.5z"/>
</g>
<g>
	<path class="st0" d="M6521.2-1198.5c0,15.7-13,28.5-29,28.5h-377.3c-16,0-29-12.8-29-28.5s13-28.5,29-28.5h377.3
		C6508.2-1226.9,6521.2-1214.1,6521.2-1198.5z"/>
</g>
<g>
	<path class="st1" d="M6535.5-1115C6535.5-1115,6535.5-1115,6535.5-1115l-1280,0c0,0,0,0,0,0v-57c0,0,0,0,0,0h1280c0,0,0,0,0,0
		V-1115z"/>
</g>
<rect x="5255.5" y="-1143.5" class="st1" width="1280" height="800"/>
<rect x="5255.5" y="456.5" class="st3" width="1280" height="800"/>
<circle class="st4" cx="5451.2" cy="-309.1" r="324.5"/>
<circle class="st6" cx="5834.2" cy="-209.1" r="324.5"/>
<rect x="5255.5" y="-343.5" class="st4" width="1280" height="800"/>
<circle class="st7" cx="6369.7" cy="-1017.1" r="50"/>
<circle class="st7" cx="6369.7" cy="-209.1" r="50"/>
<circle class="st7" cx="6369.7" cy="582.9" r="50"/>
<g>
	<path class="st3" d="M6369.9,260.1c0,15.7-13.1,28.5-29,28.5H5332.5c-16,0-29-12.8-29-28.5s13-28.5,29-28.5h1008.4
		C6356.9,231.6,6369.9,244.4,6369.9,260.1z"/>
</g>
<g>
	<path class="st3" d="M6373.6,316.1c0,15.7-13,28.5-29,28.5H5336.1c-15.9,0-29-12.8-29-28.5c0-15.7,13.1-28.5,29-28.5h1008.4
		C6360.5,287.6,6373.6,300.4,6373.6,316.1z"/>
</g>
<g>
	<path class="st4" d="M5705.5,317.1c0,15.7-13,28.5-29,28.5h-392c-16,0-29-12.8-29-28.5c0-15.7,13-28.5,29-28.5h392
		C5692.5,288.6,5705.5,301.4,5705.5,317.1z"/>
</g>
<g>
	<path class="st4" d="M6480.4,317.1c0,15.7-13.1,28.5-29,28.5h-447.1c-15.9,0-29-12.8-29-28.5c0-15.7,13.1-28.5,29-28.5h447.1
		C6467.3,288.6,6480.4,301.4,6480.4,317.1z"/>
</g>
<g>
	<path class="st3" d="M6161.4,372.1c0,15.7-13,28.5-29,28.5H5388c-16,0-29-12.8-29-28.5s13-28.5,29-28.5h744.5
		C6148.4,343.6,6161.4,356.4,6161.4,372.1z"/>
</g>
<g>
	<path class="st3" d="M6343.4,372.1c0,15.7-13,28.5-29,28.5h-74c-16,0-29-12.8-29-28.5s13-28.5,29-28.5h74
		C6330.4,343.6,6343.4,356.4,6343.4,372.1z"/>
</g>
<g>
	<path class="st3" d="M6125.6,428c0,15.7-13.1,28.5-29,28.5h-690.7c-16,0-29-12.8-29-28.5c0-15.7,13-28.5,29-28.5h690.7
		C6112.6,399.5,6125.6,412.4,6125.6,428z"/>
</g>
<g>
	<path class="st4" d="M5775.3,430c0,15.7-13.1,28.5-29,28.5h-392c-16,0-29-12.8-29-28.5c0-15.7,13-28.5,29-28.5h392
		C5762.2,401.5,5775.3,414.4,5775.3,430z"/>
</g>
<g>
	<path class="st4" d="M6480.4,429c0,15.7-13.1,28.5-29,28.5H6074c-15.9,0-29-12.8-29-28.5c0-15.7,13.1-28.5,29-28.5h377.3
		C6467.3,400.5,6480.4,413.4,6480.4,429z"/>
</g>
<rect x="4785.7" y="-645.6" class="st9" width="464" height="973"/>
<rect x="3846.5" y="-1918.5" class="st0" width="1280" height="800"/>
<g>
	<path class="st1" d="M5001.8-1282.4c0,15.7-13,28.5-29,28.5H3964.3c-15.9,0-29-12.8-29-28.5s13.1-28.5,29-28.5h1008.4
		C4988.7-1310.9,5001.8-1298.1,5001.8-1282.4z"/>
</g>
<g>
	<path class="st1" d="M5005.5-1226.4c0,15.7-13.1,28.5-29,28.5H3968c-15.9,0-29-12.8-29-28.5c0-15.7,13.1-28.5,29-28.5h1008.4
		C4992.4-1254.9,5005.5-1242.1,5005.5-1226.4z"/>
</g>
<g>
	<path class="st0" d="M4337.4-1225.4c0,15.7-13.1,28.5-29,28.5h-392c-15.9,0-29-12.8-29-28.5c0-15.7,13.1-28.5,29-28.5h392
		C4324.3-1253.9,4337.4-1241.1,4337.4-1225.4z"/>
</g>
<g>
	<path class="st0" d="M5112.2-1225.4c0,15.7-13,28.5-29,28.5h-447.1c-16,0-29-12.8-29-28.5c0-15.7,13-28.5,29-28.5h447.1
		C5099.2-1253.9,5112.2-1241.1,5112.2-1225.4z"/>
</g>
<g>
	<path class="st1" d="M4793.3-1170.4c0,15.7-13.1,28.5-29,28.5h-744.5c-15.9,0-29-12.8-29-28.5s13.1-28.5,29-28.5h744.5
		C4780.3-1198.9,4793.3-1186.1,4793.3-1170.4z"/>
</g>
<g>
	<path class="st1" d="M4975.3-1170.4c0,15.7-13.1,28.5-29,28.5h-74c-15.9,0-29-12.8-29-28.5s13.1-28.5,29-28.5h74
		C4962.2-1198.9,4975.3-1186.1,4975.3-1170.4z"/>
</g>
<rect x="4224.1" y="-1559" class="st2" width="108" height="207.1"/>
<rect x="4278.5" y="-1613.6" class="st2" width="53.6" height="55.8"/>
<polygon class="st3" points="4199.7,-1312.1 4041.7,-1312.1 4041.7,-1579.2 4106.4,-1730.1 4199.7,-1730.1 "/>
<polygon class="st3" points="4430.7,-1308.3 4563.4,-1308.3 4563.4,-1473.6 4497,-1566.9 4430.7,-1566.9 "/>
<rect x="4597.1" y="-1649.3" class="st6" width="176.4" height="338.3"/>
<polygon class="st5" points="4960.9,-1310.7 4785.9,-1310.7 4785.9,-1525 4829.6,-1585.4 4917.8,-1585.7 4960.9,-1525.6 "/>
<polygon class="st6" points="4758.9,-1641.5 4744.3,-1641.5 4751.6,-1716 4758.9,-1790.4 4766.1,-1716 4773.4,-1641.5 "/>
<rect x="4584.6" y="-1580.5" class="st6" width="201.2" height="269.6"/>
<rect x="4627.5" y="-1649.3" class="st4" width="116.8" height="120.8"/>
<rect x="4644.9" y="-1554.8" class="st6" width="80.8" height="243.8"/>
<rect x="4665.7" y="-1576.3" class="st6" width="40.4" height="265.4"/>
<rect x="4310.1" y="-1491.3" class="st5" width="108" height="103.5"/>
<rect x="4333.2" y="-1514.6" class="st5" width="61.7" height="25.1"/>
<polygon class="st2" points="4300.8,-1609.5 4305.4,-1748 4310.2,-1609.5 "/>
<g>
	<circle class="st2" cx="4491.7" cy="-1723" r="33.6"/>
	<ellipse class="st2" cx="4547.7" cy="-1736.6" rx="42.8" ry="49.1"/>
	<ellipse class="st2" cx="4606.7" cy="-1722.1" rx="32.6" ry="34.5"/>
	<ellipse class="st2" cx="4457.6" cy="-1705.7" rx="17.8" ry="16.4"/>
	<polygon class="st2" points="4457,-1689.4 4606.7,-1687.6 4544.9,-1736.6 	"/>
</g>
<rect x="4285.4" y="-1466" class="st5" width="157.3" height="103.5"/>
<rect x="4224.1" y="-1390.4" class="st7" width="387.8" height="79.7"/>
<rect x="4157.9" y="-1466" class="st4" width="108" height="155.3"/>
<rect x="3981.9" y="-1391.7" class="st7" width="176" height="79.7"/>
<rect x="3990.8" y="-1290.4" class="st2" width="61.9" height="16"/>
<rect x="4099.9" y="-1290.4" class="st2" width="61.9" height="16"/>
<rect x="4208.9" y="-1290.4" class="st2" width="61.9" height="16"/>
<rect x="4318" y="-1290.4" class="st2" width="61.9" height="16"/>
<rect x="4427" y="-1290.4" class="st2" width="61.9" height="16"/>
<rect x="4539.8" y="-1290.4" class="st2" width="61.9" height="16"/>
<rect x="4648.9" y="-1290.4" class="st2" width="61.9" height="16"/>
<rect x="4757.9" y="-1290.4" class="st2" width="61.9" height="16"/>
<rect x="4866.9" y="-1290.4" class="st2" width="61.9" height="16"/>
<rect x="4066" y="-1569.9" class="st8" width="22.9" height="22.9"/>
<rect x="4160.6" y="-1569.9" class="st8" width="22.9" height="22.9"/>
<rect x="4113.3" y="-1569.9" class="st8" width="22.9" height="22.9"/>
<rect x="4066" y="-1533.5" class="st2" width="22.9" height="22.9"/>
<rect x="4160.6" y="-1533.5" class="st8" width="22.9" height="22.9"/>
<rect x="4113.3" y="-1533.5" class="st8" width="22.9" height="22.9"/>
<rect x="4066" y="-1497.2" class="st8" width="22.9" height="22.9"/>
<rect x="4160.6" y="-1497.2" class="st8" width="22.9" height="22.9"/>
<rect x="4113.3" y="-1497.2" class="st2" width="22.9" height="22.9"/>
<rect x="4066" y="-1460.8" class="st8" width="22.9" height="22.9"/>
<rect x="4113.3" y="-1460.8" class="st8" width="22.9" height="22.9"/>
<rect x="4066" y="-1424.4" class="st2" width="22.9" height="22.9"/>
<rect x="4113.3" y="-1424.4" class="st8" width="22.9" height="22.9"/>
<rect x="4160.6" y="-1606.3" class="st8" width="22.9" height="22.9"/>
<rect x="4113.3" y="-1606.3" class="st8" width="22.9" height="22.9"/>
<rect x="4160.6" y="-1715.4" class="st8" width="22.9" height="22.9"/>
<rect x="4160.6" y="-1679.1" class="st8" width="22.9" height="22.9"/>
<rect x="4113.3" y="-1679.1" class="st2" width="22.9" height="22.9"/>
<rect x="4160.6" y="-1642.7" class="st8" width="22.9" height="22.9"/>
<rect x="4113.3" y="-1642.7" class="st8" width="22.9" height="22.9"/>
<rect x="4066" y="-1606.3" class="st2" width="22.9" height="22.9"/>
<rect x="4655.1" y="-1509.7" class="st4" width="7" height="197.7"/>
<rect x="4665.8" y="-1509.7" class="st4" width="7" height="197.7"/>
<rect x="4676.4" y="-1509.7" class="st4" width="7" height="197.7"/>
<rect x="4687.1" y="-1509.7" class="st4" width="7" height="197.7"/>
<rect x="4697.7" y="-1509.7" class="st4" width="7" height="197.7"/>
<rect x="4708.4" y="-1509.7" class="st4" width="7" height="197.7"/>
<rect x="4830.7" y="-1503.4" class="st2" width="7" height="192.4"/>
<rect x="4841.3" y="-1503.4" class="st2" width="7" height="192.4"/>
<rect x="4852" y="-1503.4" class="st2" width="7" height="192.4"/>
<rect x="4862.6" y="-1503.4" class="st2" width="7" height="192.4"/>
<rect x="4873.3" y="-1503.4" class="st2" width="7" height="192.4"/>
<rect x="4883.9" y="-1503.4" class="st2" width="7" height="192.4"/>
<rect x="4894.6" y="-1503.4" class="st2" width="7" height="192.4"/>
<rect x="4905.2" y="-1503.4" class="st2" width="7" height="192.4"/>
<rect x="4788.2" y="-1503.4" class="st2" width="7" height="192.4"/>
<rect x="4798.9" y="-1503.4" class="st2" width="7" height="192.4"/>
<rect x="4809.5" y="-1503.4" class="st2" width="7" height="192.4"/>
<rect x="4820.2" y="-1503.4" class="st2" width="7" height="192.4"/>
<rect x="4915.9" y="-1503.4" class="st2" width="7" height="192.4"/>
<rect x="4926.5" y="-1503.4" class="st2" width="7" height="192.4"/>
<rect x="4937.1" y="-1503.4" class="st2" width="7" height="192.4"/>
<rect x="4947.8" y="-1503.4" class="st2" width="7" height="192.4"/>
<rect x="4763.5" y="-1437.6" class="st3" width="61.7" height="25.1"/>
<rect x="4740.3" y="-1414.2" class="st3" width="108" height="103.5"/>
<rect x="4757.5" y="-1377.5" class="st8" width="14.4" height="14.4"/>
<rect x="4816.8" y="-1377.5" class="st8" width="14.4" height="14.4"/>
<rect x="4787.2" y="-1377.5" class="st8" width="14.4" height="14.4"/>
<rect x="4757.5" y="-1354.6" class="st2" width="14.4" height="14.4"/>
<rect x="4816.8" y="-1354.6" class="st8" width="14.4" height="14.4"/>
<rect x="4787.2" y="-1354.6" class="st8" width="14.4" height="14.4"/>
<rect x="4816.8" y="-1400.3" class="st8" width="14.4" height="14.4"/>
<rect x="4787.2" y="-1400.3" class="st8" width="14.4" height="14.4"/>
<rect x="4757.5" y="-1400.3" class="st2" width="14.4" height="14.4"/>
<rect x="4802" y="-1431.4" class="st2" width="14.4" height="14.4"/>
<rect x="4772.3" y="-1431.4" class="st2" width="14.4" height="14.4"/>
<rect x="4757.5" y="-1331.8" class="st2" width="14.4" height="14.4"/>
<rect x="4816.8" y="-1331.8" class="st2" width="14.4" height="14.4"/>
<rect x="4787.2" y="-1331.8" class="st8" width="14.4" height="14.4"/>
<rect x="4285.9" y="-1340.7" class="st3" width="308.6" height="22.9"/>
<rect x="4380.5" y="-1377.1" class="st3" width="22.9" height="22.9"/>
<rect x="4333.2" y="-1377.1" class="st3" width="22.9" height="22.9"/>
<rect x="4285.9" y="-1377.1" class="st3" width="22.9" height="22.9"/>
<rect x="4475" y="-1377.1" class="st3" width="22.9" height="22.9"/>
<rect x="4427.8" y="-1377.1" class="st3" width="22.9" height="22.9"/>
<rect x="4522.3" y="-1377.1" class="st3" width="22.9" height="22.9"/>
<rect x="4569.6" y="-1377.1" class="st3" width="22.9" height="22.9"/>
<rect x="4007.3" y="-1340.7" class="st3" width="117.4" height="22.9"/>
<rect x="4007.3" y="-1377.1" class="st3" width="22.9" height="22.9"/>
<rect x="4054.6" y="-1377.1" class="st3" width="22.9" height="22.9"/>
<rect x="4101.8" y="-1377.1" class="st3" width="22.9" height="22.9"/>
<rect x="4446.5" y="-1529.3" class="st8" width="14.4" height="14.4"/>
<rect x="4476.2" y="-1529.3" class="st8" width="14.4" height="14.4"/>
<rect x="4446.5" y="-1506.4" class="st2" width="14.4" height="14.4"/>
<rect x="4476.2" y="-1506.4" class="st8" width="14.4" height="14.4"/>
<rect x="4476.2" y="-1552.1" class="st8" width="14.4" height="14.4"/>
<rect x="4446.5" y="-1552.1" class="st2" width="14.4" height="14.4"/>
<rect x="4446.5" y="-1483.6" class="st2" width="14.4" height="14.4"/>
<rect x="4476.2" y="-1483.6" class="st8" width="14.4" height="14.4"/>
<rect x="4446.5" y="-1460.1" class="st8" width="14.4" height="14.4"/>
<rect x="4476.2" y="-1460.1" class="st8" width="14.4" height="14.4"/>
<rect x="4446.5" y="-1437.3" class="st2" width="14.4" height="14.4"/>
<rect x="4476.2" y="-1437.3" class="st8" width="14.4" height="14.4"/>
<rect x="4446.5" y="-1414.5" class="st2" width="14.4" height="14.4"/>
<rect x="4476.2" y="-1414.5" class="st8" width="14.4" height="14.4"/>
<rect x="4505.9" y="-1483.6" class="st8" width="39.3" height="14.4"/>
<rect x="4505.9" y="-1460.1" class="st2" width="39.3" height="14.4"/>
<rect x="4505.9" y="-1506.4" class="st8" width="14.4" height="14.4"/>
<rect x="4505.9" y="-1437.3" class="st8" width="39.3" height="14.4"/>
<rect x="4505.9" y="-1414.5" class="st8" width="39.3" height="14.4"/>
<rect x="4224.1" y="-1379.2" class="st2" width="22.9" height="22.9"/>
<rect x="4176.8" y="-1379.2" class="st5" width="22.9" height="22.9"/>
<rect x="4224.1" y="-1342.8" class="st5" width="22.9" height="22.9"/>
<rect x="4176.8" y="-1342.8" class="st2" width="22.9" height="22.9"/>
<rect x="4224.1" y="-1415.6" class="st5" width="22.9" height="22.9"/>
<rect x="4176.8" y="-1415.6" class="st2" width="22.9" height="22.9"/>
<rect x="4224.1" y="-1452" class="st2" width="22.9" height="22.9"/>
<rect x="4176.8" y="-1452" class="st2" width="22.9" height="22.9"/>
<rect x="4298.4" y="-1402.3" class="st2" width="131.3" height="7"/>
<rect x="4298.4" y="-1412.9" class="st2" width="131.3" height="7"/>
<rect x="4298.4" y="-1423.6" class="st2" width="131.3" height="7"/>
<rect x="4298.4" y="-1434.2" class="st2" width="131.3" height="7"/>
<rect x="4298.4" y="-1444.9" class="st2" width="131.3" height="7"/>
<rect x="4298.4" y="-1455.5" class="st2" width="131.3" height="7"/>
<circle class="st7" cx="4960.7" cy="-1730.1" r="50"/>
<polygon class="st6" points="4611.8,-1641.5 4597.3,-1641.5 4604.6,-1716 4611.8,-1790.4 4619.1,-1716 4626.4,-1641.5 "/>
<rect x="3846.5" y="-1137.5" class="st0" width="1280" height="800"/>
<rect x="3846.5" y="462.5" class="st0" width="1280" height="800"/>
<circle class="st4" cx="4042.2" cy="-303.1" r="324.5"/>
<circle class="st6" cx="4425.2" cy="-203.1" r="324.5"/>
<rect x="3846.5" y="-337.5" class="st4" width="1280" height="800"/>
<circle class="st7" cx="4960.7" cy="-1011.1" r="50"/>
<circle class="st7" cx="4960.7" cy="-203.1" r="50"/>
<circle class="st7" cx="4960.7" cy="588.9" r="50"/>
<g>
	<path class="st0" d="M4960.9,266.1c0,15.7-13.1,28.5-29,28.5H3923.5c-15.9,0-29-12.8-29-28.5s13.1-28.5,29-28.5h1008.4
		C4947.9,237.6,4960.9,250.4,4960.9,266.1z"/>
</g>
<g>
	<path class="st0" d="M4964.6,322.1c0,15.7-13,28.5-29,28.5H3927.1c-16,0-29-12.8-29-28.5c0-15.7,13-28.5,29-28.5h1008.4
		C4951.5,293.6,4964.6,306.4,4964.6,322.1z"/>
</g>
<g>
	<path class="st4" d="M4296.5,323.1c0,15.7-13,28.5-29,28.5h-392c-16,0-29-12.8-29-28.5c0-15.7,13-28.5,29-28.5h392
		C4283.5,294.6,4296.5,307.4,4296.5,323.1z"/>
</g>
<g>
	<path class="st4" d="M5071.4,323.1c0,15.7-13.1,28.5-29,28.5h-447.1c-15.9,0-29-12.8-29-28.5c0-15.7,13.1-28.5,29-28.5h447.1
		C5058.3,294.6,5071.4,307.4,5071.4,323.1z"/>
</g>
<g>
	<path class="st0" d="M4752.4,378.1c0,15.7-13,28.5-29,28.5H3979c-15.9,0-29-12.8-29-28.5s13.1-28.5,29-28.5h744.5
		C4739.4,349.6,4752.4,362.4,4752.4,378.1z"/>
</g>
<g>
	<path class="st0" d="M4934.4,378.1c0,15.7-13,28.5-29,28.5h-74c-16,0-29-12.8-29-28.5s13-28.5,29-28.5h74
		C4921.4,349.6,4934.4,362.4,4934.4,378.1z"/>
</g>
<g>
	<path class="st0" d="M4716.6,434c0,15.7-13.1,28.5-29,28.5h-690.7c-15.9,0-29-12.8-29-28.5c0-15.7,13.1-28.5,29-28.5h690.7
		C4703.6,405.5,4716.6,418.4,4716.6,434z"/>
</g>
<g>
	<path class="st4" d="M4366.3,436c0,15.7-13.1,28.5-29,28.5h-392c-15.9,0-29-12.8-29-28.5c0-15.7,13.1-28.5,29-28.5h392
		C4353.2,407.5,4366.3,420.4,4366.3,436z"/>
</g>
<g>
	<path class="st4" d="M5071.4,435c0,15.7-13.1,28.5-29,28.5H4665c-15.9,0-29-12.8-29-28.5c0-15.7,13.1-28.5,29-28.5h377.3
		C5058.3,406.5,5071.4,419.4,5071.4,435z"/>
</g>
<rect x="3376.7" y="-639.6" class="st9" width="464" height="973"/>
<text transform="matrix(1 0 0 1 3865.6938 -1809.2173)" class="st3" style="font-family:'Raleway-Bold'; font-size:100px;">GRACE KAMPA</text>
<text transform="matrix(1 0 0 1 3873.6938 -1816.2173)" class="st2" style="font-family:'Raleway-Bold'; font-size:100px;">GRACE KAMPA</text>
<text transform="matrix(1 0 0 1 4217.8677 -1938.6056)" class="st1" style="font-family:'Raleway-Bold'; font-size:52px;">GRACE KAMPA</text>
<rect x="2525.5" y="-1915.5" class="st0" width="1280" height="800"/>
<g>
	<path class="st1" d="M3698.8-1156.4c0,15.7-13.1,28.5-29,28.5H2661.3c-15.9,0-29-12.8-29-28.5s13.1-28.5,29-28.5h1008.4
		C3685.7-1184.9,3698.8-1172.1,3698.8-1156.4z"/>
</g>
<rect x="2921.1" y="-1433" class="st2" width="108" height="207.1"/>
<rect x="2975.5" y="-1487.6" class="st2" width="53.6" height="55.8"/>
<polygon class="st3" points="2896.7,-1186.1 2738.7,-1186.1 2738.7,-1453.2 2803.4,-1604.1 2896.7,-1604.1 "/>
<polygon class="st3" points="3127.7,-1182.3 3260.4,-1182.3 3260.4,-1347.6 3194,-1440.9 3127.7,-1440.9 "/>
<rect x="3294.1" y="-1523.3" class="st6" width="176.4" height="338.3"/>
<polygon class="st5" points="3657.9,-1184.7 3482.9,-1184.7 3482.9,-1399 3526.6,-1459.4 3614.8,-1459.7 3657.9,-1399.6 "/>
<polygon class="st6" points="3455.9,-1515.5 3441.3,-1515.5 3448.6,-1590 3455.9,-1664.4 3463.1,-1590 3470.4,-1515.5 "/>
<rect x="3281.6" y="-1454.5" class="st6" width="201.2" height="269.6"/>
<rect x="3324.5" y="-1523.3" class="st4" width="116.8" height="120.8"/>
<rect x="3341.9" y="-1428.8" class="st6" width="80.8" height="243.8"/>
<rect x="3362.7" y="-1450.3" class="st6" width="40.4" height="265.4"/>
<rect x="3007.1" y="-1365.3" class="st5" width="108" height="103.5"/>
<rect x="3030.2" y="-1388.6" class="st5" width="61.7" height="25.1"/>
<polygon class="st2" points="2997.8,-1483.5 3002.4,-1622 3007.2,-1483.5 "/>
<g>
	<circle class="st2" cx="3188.7" cy="-1597" r="33.6"/>
	<ellipse class="st2" cx="3244.7" cy="-1610.6" rx="42.8" ry="49.1"/>
	<ellipse class="st2" cx="3303.7" cy="-1596.1" rx="32.6" ry="34.5"/>
	<ellipse class="st2" cx="3154.6" cy="-1579.7" rx="17.8" ry="16.4"/>
	<polygon class="st2" points="3154,-1563.4 3303.7,-1561.6 3241.9,-1610.6 	"/>
</g>
<rect x="2982.4" y="-1340" class="st5" width="157.3" height="103.5"/>
<rect x="2921.1" y="-1264.4" class="st7" width="387.8" height="79.7"/>
<rect x="2854.9" y="-1340" class="st4" width="108" height="155.3"/>
<rect x="2678.9" y="-1265.7" class="st7" width="176" height="79.7"/>
<rect x="2687.8" y="-1164.4" class="st2" width="61.9" height="16"/>
<rect x="2796.9" y="-1164.4" class="st2" width="61.9" height="16"/>
<rect x="2905.9" y="-1164.4" class="st2" width="61.9" height="16"/>
<rect x="3015" y="-1164.4" class="st2" width="61.9" height="16"/>
<rect x="3124" y="-1164.4" class="st2" width="61.9" height="16"/>
<rect x="3236.8" y="-1164.4" class="st2" width="61.9" height="16"/>
<rect x="3345.9" y="-1164.4" class="st2" width="61.9" height="16"/>
<rect x="3454.9" y="-1164.4" class="st2" width="61.9" height="16"/>
<rect x="3563.9" y="-1164.4" class="st2" width="61.9" height="16"/>
<rect x="2763" y="-1443.9" class="st8" width="22.9" height="22.9"/>
<rect x="2857.6" y="-1443.9" class="st8" width="22.9" height="22.9"/>
<rect x="2810.3" y="-1443.9" class="st8" width="22.9" height="22.9"/>
<rect x="2763" y="-1407.5" class="st2" width="22.9" height="22.9"/>
<rect x="2857.6" y="-1407.5" class="st8" width="22.9" height="22.9"/>
<rect x="2810.3" y="-1407.5" class="st8" width="22.9" height="22.9"/>
<rect x="2763" y="-1371.2" class="st8" width="22.9" height="22.9"/>
<rect x="2857.6" y="-1371.2" class="st8" width="22.9" height="22.9"/>
<rect x="2810.3" y="-1371.2" class="st2" width="22.9" height="22.9"/>
<rect x="2763" y="-1334.8" class="st8" width="22.9" height="22.9"/>
<rect x="2810.3" y="-1334.8" class="st8" width="22.9" height="22.9"/>
<rect x="2763" y="-1298.4" class="st2" width="22.9" height="22.9"/>
<rect x="2810.3" y="-1298.4" class="st8" width="22.9" height="22.9"/>
<rect x="2857.6" y="-1480.3" class="st8" width="22.9" height="22.9"/>
<rect x="2810.3" y="-1480.3" class="st8" width="22.9" height="22.9"/>
<rect x="2857.6" y="-1589.4" class="st8" width="22.9" height="22.9"/>
<rect x="2857.6" y="-1553.1" class="st8" width="22.9" height="22.9"/>
<rect x="2810.3" y="-1553.1" class="st2" width="22.9" height="22.9"/>
<rect x="2857.6" y="-1516.7" class="st8" width="22.9" height="22.9"/>
<rect x="2810.3" y="-1516.7" class="st8" width="22.9" height="22.9"/>
<rect x="2763" y="-1480.3" class="st2" width="22.9" height="22.9"/>
<rect x="3352.1" y="-1383.7" class="st4" width="7" height="197.7"/>
<rect x="3362.8" y="-1383.7" class="st4" width="7" height="197.7"/>
<rect x="3373.4" y="-1383.7" class="st4" width="7" height="197.7"/>
<rect x="3384.1" y="-1383.7" class="st4" width="7" height="197.7"/>
<rect x="3394.7" y="-1383.7" class="st4" width="7" height="197.7"/>
<rect x="3405.4" y="-1383.7" class="st4" width="7" height="197.7"/>
<rect x="3527.7" y="-1377.4" class="st2" width="7" height="192.4"/>
<rect x="3538.3" y="-1377.4" class="st2" width="7" height="192.4"/>
<rect x="3549" y="-1377.4" class="st2" width="7" height="192.4"/>
<rect x="3559.6" y="-1377.4" class="st2" width="7" height="192.4"/>
<rect x="3570.3" y="-1377.4" class="st2" width="7" height="192.4"/>
<rect x="3580.9" y="-1377.4" class="st2" width="7" height="192.4"/>
<rect x="3591.6" y="-1377.4" class="st2" width="7" height="192.4"/>
<rect x="3602.2" y="-1377.4" class="st2" width="7" height="192.4"/>
<rect x="3485.2" y="-1377.4" class="st2" width="7" height="192.4"/>
<rect x="3495.9" y="-1377.4" class="st2" width="7" height="192.4"/>
<rect x="3506.5" y="-1377.4" class="st2" width="7" height="192.4"/>
<rect x="3517.2" y="-1377.4" class="st2" width="7" height="192.4"/>
<rect x="3612.9" y="-1377.4" class="st2" width="7" height="192.4"/>
<rect x="3623.5" y="-1377.4" class="st2" width="7" height="192.4"/>
<rect x="3634.1" y="-1377.4" class="st2" width="7" height="192.4"/>
<rect x="3644.8" y="-1377.4" class="st2" width="7" height="192.4"/>
<rect x="3460.5" y="-1311.6" class="st3" width="61.7" height="25.1"/>
<rect x="3437.3" y="-1288.2" class="st3" width="108" height="103.5"/>
<rect x="3454.5" y="-1251.5" class="st8" width="14.4" height="14.4"/>
<rect x="3513.8" y="-1251.5" class="st8" width="14.4" height="14.4"/>
<rect x="3484.2" y="-1251.5" class="st8" width="14.4" height="14.4"/>
<rect x="3454.5" y="-1228.6" class="st2" width="14.4" height="14.4"/>
<rect x="3513.8" y="-1228.6" class="st8" width="14.4" height="14.4"/>
<rect x="3484.2" y="-1228.6" class="st8" width="14.4" height="14.4"/>
<rect x="3513.8" y="-1274.3" class="st8" width="14.4" height="14.4"/>
<rect x="3484.2" y="-1274.3" class="st8" width="14.4" height="14.4"/>
<rect x="3454.5" y="-1274.3" class="st2" width="14.4" height="14.4"/>
<rect x="3499" y="-1305.4" class="st2" width="14.4" height="14.4"/>
<rect x="3469.3" y="-1305.4" class="st2" width="14.4" height="14.4"/>
<rect x="3454.5" y="-1205.8" class="st2" width="14.4" height="14.4"/>
<rect x="3513.8" y="-1205.8" class="st2" width="14.4" height="14.4"/>
<rect x="3484.2" y="-1205.8" class="st8" width="14.4" height="14.4"/>
<rect x="2982.9" y="-1214.7" class="st3" width="308.6" height="22.9"/>
<rect x="3077.5" y="-1251.1" class="st3" width="22.9" height="22.9"/>
<rect x="3030.2" y="-1251.1" class="st3" width="22.9" height="22.9"/>
<rect x="2982.9" y="-1251.1" class="st3" width="22.9" height="22.9"/>
<rect x="3172" y="-1251.1" class="st3" width="22.9" height="22.9"/>
<rect x="3124.8" y="-1251.1" class="st3" width="22.9" height="22.9"/>
<rect x="3219.3" y="-1251.1" class="st3" width="22.9" height="22.9"/>
<rect x="3266.6" y="-1251.1" class="st3" width="22.9" height="22.9"/>
<rect x="2704.3" y="-1214.7" class="st3" width="117.4" height="22.9"/>
<rect x="2704.3" y="-1251.1" class="st3" width="22.9" height="22.9"/>
<rect x="2751.6" y="-1251.1" class="st3" width="22.9" height="22.9"/>
<rect x="2798.8" y="-1251.1" class="st3" width="22.9" height="22.9"/>
<rect x="3143.5" y="-1403.3" class="st8" width="14.4" height="14.4"/>
<rect x="3173.2" y="-1403.3" class="st8" width="14.4" height="14.4"/>
<rect x="3143.5" y="-1380.4" class="st2" width="14.4" height="14.4"/>
<rect x="3173.2" y="-1380.4" class="st8" width="14.4" height="14.4"/>
<rect x="3173.2" y="-1426.1" class="st8" width="14.4" height="14.4"/>
<rect x="3143.5" y="-1426.1" class="st2" width="14.4" height="14.4"/>
<rect x="3143.5" y="-1357.6" class="st2" width="14.4" height="14.4"/>
<rect x="3173.2" y="-1357.6" class="st8" width="14.4" height="14.4"/>
<rect x="3143.5" y="-1334.1" class="st8" width="14.4" height="14.4"/>
<rect x="3173.2" y="-1334.1" class="st8" width="14.4" height="14.4"/>
<rect x="3143.5" y="-1311.3" class="st2" width="14.4" height="14.4"/>
<rect x="3173.2" y="-1311.3" class="st8" width="14.4" height="14.4"/>
<rect x="3143.5" y="-1288.5" class="st2" width="14.4" height="14.4"/>
<rect x="3173.2" y="-1288.5" class="st8" width="14.4" height="14.4"/>
<rect x="3202.9" y="-1357.6" class="st8" width="39.3" height="14.4"/>
<rect x="3202.9" y="-1334.1" class="st2" width="39.3" height="14.4"/>
<rect x="3202.9" y="-1380.4" class="st8" width="14.4" height="14.4"/>
<rect x="3202.9" y="-1311.3" class="st8" width="39.3" height="14.4"/>
<rect x="3202.9" y="-1288.5" class="st8" width="39.3" height="14.4"/>
<rect x="2921.1" y="-1253.2" class="st2" width="22.9" height="22.9"/>
<rect x="2873.8" y="-1253.2" class="st5" width="22.9" height="22.9"/>
<rect x="2921.1" y="-1216.8" class="st5" width="22.9" height="22.9"/>
<rect x="2873.8" y="-1216.8" class="st2" width="22.9" height="22.9"/>
<rect x="2921.1" y="-1289.6" class="st5" width="22.9" height="22.9"/>
<rect x="2873.8" y="-1289.6" class="st2" width="22.9" height="22.9"/>
<rect x="2921.1" y="-1326" class="st2" width="22.9" height="22.9"/>
<rect x="2873.8" y="-1326" class="st2" width="22.9" height="22.9"/>
<rect x="2995.4" y="-1276.3" class="st2" width="131.3" height="7"/>
<rect x="2995.4" y="-1286.9" class="st2" width="131.3" height="7"/>
<rect x="2995.4" y="-1297.6" class="st2" width="131.3" height="7"/>
<rect x="2995.4" y="-1308.2" class="st2" width="131.3" height="7"/>
<rect x="2995.4" y="-1318.9" class="st2" width="131.3" height="7"/>
<rect x="2995.4" y="-1329.5" class="st2" width="131.3" height="7"/>
<circle class="st7" cx="3657.7" cy="-1604.1" r="50"/>
<polygon class="st6" points="3308.8,-1515.5 3294.3,-1515.5 3301.6,-1590 3308.8,-1664.4 3316.1,-1590 3323.4,-1515.5 "/>
<rect x="2532" y="-309.1" class="st4" width="1280" height="800"/>
<text transform="matrix(1 0 0 1 2749.4585 -1749.5801)" class="st3" style="font-family:'Raleway-Bold'; font-size:116px;">GRACE KAMPA</text>
<text transform="matrix(1 0 0 1 2761.4583 -1755.5801)" class="st2" style="font-family:'Raleway-Bold'; font-size:116px;">GRACE KAMPA</text>
<rect x="1185.5" y="-1915.5" class="st0" width="1280" height="800"/>
<rect x="1571.1" y="-1365" class="st2" width="108" height="207.1"/>
<rect x="1625.5" y="-1419.6" class="st2" width="53.6" height="55.8"/>
<polygon class="st3" points="1546.7,-1118.1 1388.7,-1118.1 1388.7,-1385.2 1453.4,-1536.1 1546.7,-1536.1 "/>
<polygon class="st3" points="1777.7,-1116.3 1910.4,-1116.3 1910.4,-1281.6 1844,-1374.9 1777.7,-1374.9 "/>
<rect x="1944.1" y="-1455.3" class="st6" width="176.4" height="338.3"/>
<polygon class="st5" points="2307.9,-1116.7 2132.9,-1116.7 2132.9,-1331 2176.6,-1391.4 2264.8,-1391.7 2307.9,-1331.6 "/>
<polygon class="st6" points="2105.9,-1447.5 2091.3,-1447.5 2098.6,-1522 2105.9,-1596.4 2113.1,-1522 2120.4,-1447.5 "/>
<rect x="1931.6" y="-1386.5" class="st6" width="201.2" height="269.6"/>
<rect x="1974.5" y="-1455.3" class="st4" width="116.8" height="120.8"/>
<rect x="1991.9" y="-1360.8" class="st6" width="80.8" height="243.8"/>
<rect x="2012.7" y="-1382.3" class="st6" width="40.4" height="265.4"/>
<rect x="1657.1" y="-1297.3" class="st5" width="108" height="103.5"/>
<rect x="1680.2" y="-1320.6" class="st5" width="61.7" height="25.1"/>
<polygon class="st2" points="1647.8,-1415.5 1652.4,-1554 1657.2,-1415.5 "/>
<g>
	<circle class="st2" cx="1838.7" cy="-1529" r="33.6"/>
	<ellipse class="st2" cx="1894.7" cy="-1542.6" rx="42.8" ry="49.1"/>
	<ellipse class="st2" cx="1953.7" cy="-1528.1" rx="32.6" ry="34.5"/>
	<ellipse class="st2" cx="1804.6" cy="-1511.7" rx="17.8" ry="16.4"/>
	<polygon class="st2" points="1804,-1495.4 1953.7,-1493.6 1891.9,-1542.6 	"/>
</g>
<rect x="1632.4" y="-1272" class="st5" width="157.3" height="103.5"/>
<rect x="1571.1" y="-1196.4" class="st7" width="387.8" height="79.7"/>
<rect x="1504.9" y="-1272" class="st4" width="108" height="155.3"/>
<rect x="1328.9" y="-1197.7" class="st7" width="176" height="79.7"/>
<rect x="1413" y="-1375.9" class="st8" width="22.9" height="22.9"/>
<rect x="1507.6" y="-1375.9" class="st8" width="22.9" height="22.9"/>
<rect x="1460.3" y="-1375.9" class="st8" width="22.9" height="22.9"/>
<rect x="1413" y="-1339.5" class="st2" width="22.9" height="22.9"/>
<rect x="1507.6" y="-1339.5" class="st8" width="22.9" height="22.9"/>
<rect x="1460.3" y="-1339.5" class="st8" width="22.9" height="22.9"/>
<rect x="1413" y="-1303.2" class="st8" width="22.9" height="22.9"/>
<rect x="1507.6" y="-1303.2" class="st8" width="22.9" height="22.9"/>
<rect x="1460.3" y="-1303.2" class="st2" width="22.9" height="22.9"/>
<rect x="1413" y="-1266.8" class="st8" width="22.9" height="22.9"/>
<rect x="1460.3" y="-1266.8" class="st8" width="22.9" height="22.9"/>
<rect x="1413" y="-1230.4" class="st2" width="22.9" height="22.9"/>
<rect x="1460.3" y="-1230.4" class="st8" width="22.9" height="22.9"/>
<rect x="1507.6" y="-1412.3" class="st8" width="22.9" height="22.9"/>
<rect x="1460.3" y="-1412.3" class="st8" width="22.9" height="22.9"/>
<rect x="1507.6" y="-1521.4" class="st8" width="22.9" height="22.9"/>
<rect x="1507.6" y="-1485.1" class="st8" width="22.9" height="22.9"/>
<rect x="1460.3" y="-1485.1" class="st2" width="22.9" height="22.9"/>
<rect x="1507.6" y="-1448.7" class="st8" width="22.9" height="22.9"/>
<rect x="1460.3" y="-1448.7" class="st8" width="22.9" height="22.9"/>
<rect x="1413" y="-1412.3" class="st2" width="22.9" height="22.9"/>
<rect x="2002.1" y="-1315.7" class="st4" width="7" height="197.7"/>
<rect x="2012.8" y="-1315.7" class="st4" width="7" height="197.7"/>
<rect x="2023.4" y="-1315.7" class="st4" width="7" height="197.7"/>
<rect x="2034.1" y="-1315.7" class="st4" width="7" height="197.7"/>
<rect x="2044.7" y="-1315.7" class="st4" width="7" height="197.7"/>
<rect x="2055.4" y="-1315.7" class="st4" width="7" height="197.7"/>
<rect x="2177.7" y="-1309.4" class="st2" width="7" height="192.4"/>
<rect x="2188.3" y="-1309.4" class="st2" width="7" height="192.4"/>
<rect x="2199" y="-1309.4" class="st2" width="7" height="192.4"/>
<rect x="2209.6" y="-1309.4" class="st2" width="7" height="192.4"/>
<rect x="2220.3" y="-1309.4" class="st2" width="7" height="192.4"/>
<rect x="2230.9" y="-1309.4" class="st2" width="7" height="192.4"/>
<rect x="2241.6" y="-1309.4" class="st2" width="7" height="192.4"/>
<rect x="2252.2" y="-1309.4" class="st2" width="7" height="192.4"/>
<rect x="2135.2" y="-1309.4" class="st2" width="7" height="192.4"/>
<rect x="2145.9" y="-1309.4" class="st2" width="7" height="192.4"/>
<rect x="2156.5" y="-1309.4" class="st2" width="7" height="192.4"/>
<rect x="2167.2" y="-1309.4" class="st2" width="7" height="192.4"/>
<rect x="2262.9" y="-1309.4" class="st2" width="7" height="192.4"/>
<rect x="2273.5" y="-1309.4" class="st2" width="7" height="192.4"/>
<rect x="2284.1" y="-1309.4" class="st2" width="7" height="192.4"/>
<rect x="2294.8" y="-1309.4" class="st2" width="7" height="192.4"/>
<rect x="2110.5" y="-1243.6" class="st3" width="61.7" height="25.1"/>
<rect x="2087.3" y="-1220.2" class="st3" width="108" height="103.5"/>
<rect x="2104.5" y="-1183.5" class="st8" width="14.4" height="14.4"/>
<rect x="2163.8" y="-1183.5" class="st8" width="14.4" height="14.4"/>
<rect x="2134.2" y="-1183.5" class="st8" width="14.4" height="14.4"/>
<rect x="2104.5" y="-1160.6" class="st2" width="14.4" height="14.4"/>
<rect x="2163.8" y="-1160.6" class="st8" width="14.4" height="14.4"/>
<rect x="2134.2" y="-1160.6" class="st8" width="14.4" height="14.4"/>
<rect x="2163.8" y="-1206.3" class="st8" width="14.4" height="14.4"/>
<rect x="2134.2" y="-1206.3" class="st8" width="14.4" height="14.4"/>
<rect x="2104.5" y="-1206.3" class="st2" width="14.4" height="14.4"/>
<rect x="2149" y="-1237.4" class="st2" width="14.4" height="14.4"/>
<rect x="2119.3" y="-1237.4" class="st2" width="14.4" height="14.4"/>
<rect x="2104.5" y="-1137.8" class="st2" width="14.4" height="14.4"/>
<rect x="2163.8" y="-1137.8" class="st2" width="14.4" height="14.4"/>
<rect x="2134.2" y="-1137.8" class="st8" width="14.4" height="14.4"/>
<rect x="1632.9" y="-1146.7" class="st3" width="308.6" height="22.9"/>
<rect x="1727.5" y="-1183.1" class="st3" width="22.9" height="22.9"/>
<rect x="1680.2" y="-1183.1" class="st3" width="22.9" height="22.9"/>
<rect x="1632.9" y="-1183.1" class="st3" width="22.9" height="22.9"/>
<rect x="1822" y="-1183.1" class="st3" width="22.9" height="22.9"/>
<rect x="1774.8" y="-1183.1" class="st3" width="22.9" height="22.9"/>
<rect x="1869.3" y="-1183.1" class="st3" width="22.9" height="22.9"/>
<rect x="1916.6" y="-1183.1" class="st3" width="22.9" height="22.9"/>
<rect x="1354.3" y="-1146.7" class="st3" width="117.4" height="22.9"/>
<rect x="1354.3" y="-1183.1" class="st3" width="22.9" height="22.9"/>
<rect x="1401.6" y="-1183.1" class="st3" width="22.9" height="22.9"/>
<rect x="1448.8" y="-1183.1" class="st3" width="22.9" height="22.9"/>
<rect x="1793.5" y="-1335.3" class="st8" width="14.4" height="14.4"/>
<rect x="1823.2" y="-1335.3" class="st8" width="14.4" height="14.4"/>
<rect x="1793.5" y="-1312.4" class="st2" width="14.4" height="14.4"/>
<rect x="1823.2" y="-1312.4" class="st8" width="14.4" height="14.4"/>
<rect x="1823.2" y="-1358.1" class="st8" width="14.4" height="14.4"/>
<rect x="1793.5" y="-1358.1" class="st2" width="14.4" height="14.4"/>
<rect x="1793.5" y="-1289.6" class="st2" width="14.4" height="14.4"/>
<rect x="1823.2" y="-1289.6" class="st8" width="14.4" height="14.4"/>
<rect x="1793.5" y="-1266.1" class="st8" width="14.4" height="14.4"/>
<rect x="1823.2" y="-1266.1" class="st8" width="14.4" height="14.4"/>
<rect x="1793.5" y="-1243.3" class="st2" width="14.4" height="14.4"/>
<rect x="1823.2" y="-1243.3" class="st8" width="14.4" height="14.4"/>
<rect x="1793.5" y="-1220.5" class="st2" width="14.4" height="14.4"/>
<rect x="1823.2" y="-1220.5" class="st8" width="14.4" height="14.4"/>
<rect x="1852.9" y="-1289.6" class="st8" width="39.3" height="14.4"/>
<rect x="1852.9" y="-1266.1" class="st2" width="39.3" height="14.4"/>
<rect x="1852.9" y="-1312.4" class="st8" width="14.4" height="14.4"/>
<rect x="1852.9" y="-1243.3" class="st8" width="39.3" height="14.4"/>
<rect x="1852.9" y="-1220.5" class="st8" width="39.3" height="14.4"/>
<rect x="1571.1" y="-1185.2" class="st2" width="22.9" height="22.9"/>
<rect x="1523.8" y="-1185.2" class="st5" width="22.9" height="22.9"/>
<rect x="1571.1" y="-1148.8" class="st5" width="22.9" height="22.9"/>
<rect x="1523.8" y="-1148.8" class="st2" width="22.9" height="22.9"/>
<rect x="1571.1" y="-1221.6" class="st5" width="22.9" height="22.9"/>
<rect x="1523.8" y="-1221.6" class="st2" width="22.9" height="22.9"/>
<rect x="1571.1" y="-1258" class="st2" width="22.9" height="22.9"/>
<rect x="1523.8" y="-1258" class="st2" width="22.9" height="22.9"/>
<rect x="1645.4" y="-1208.3" class="st2" width="131.3" height="7"/>
<rect x="1645.4" y="-1218.9" class="st2" width="131.3" height="7"/>
<rect x="1645.4" y="-1229.6" class="st2" width="131.3" height="7"/>
<rect x="1645.4" y="-1240.2" class="st2" width="131.3" height="7"/>
<rect x="1645.4" y="-1250.9" class="st2" width="131.3" height="7"/>
<rect x="1645.4" y="-1261.5" class="st2" width="131.3" height="7"/>
<circle class="st7" cx="2307.7" cy="-1536.1" r="50"/>
<polygon class="st6" points="1958.8,-1447.5 1944.3,-1447.5 1951.6,-1522 1958.8,-1596.4 1966.1,-1522 1973.4,-1447.5 "/>
<rect x="1185.5" y="-1115" class="st5" width="1280" height="800"/>
<rect x="1183.5" y="493.1" class="st3" width="1280" height="800"/>
<text transform="matrix(1 0 0 1 1409.4586 -1749.58)" class="st3" style="font-family:'Raleway-Bold'; font-size:116px;">GRACE KAMPA</text>
<text transform="matrix(1 0 0 1 1421.4584 -1755.5801)" class="st2" style="font-family:'Raleway-Bold'; font-size:116px;">GRACE KAMPA</text>
<text transform="matrix(1 0 0 1 1661.5032 -971.5674)" style="fill:#88413F; font-family:'Raleway-Bold'; font-size:116px;">about</text>
<g>
	<text transform="matrix(1 0 0 1 3013.7805 -165.6717)" class="st2" style="font-family:'Raleway-Bold'; font-size:116px;">skills</text>
</g>
<circle class="st10" cx="1350" cy="902.5" r="92.3"/>
<circle class="st10" cx="1805.8" cy="902.5" r="92.3"/>
<text transform="matrix(1 0 0 1 1248.6222 1071.8953)" class="st7" style="font-family:'Raleway'; font-size:61.5534px;">puzzles</text>
<circle class="st10" cx="2261.7" cy="902.5" r="92.3"/>
<text transform="matrix(1 0 0 1 1727.4391 1071.8953)" class="st7" style="font-family:'Raleway'; font-size:61.5534px;">hiking</text>
<text transform="matrix(1 0 0 1 2114.0474 1071.8953)" class="st7" style="font-family:'Raleway'; font-size:61.5534px;">mud races</text>
<polygon class="st4" points="1747.6,948.5 1788.3,856.7 1827.5,948.5 "/>
<polygon class="st6" points="1803.1,948.5 1829.8,902.6 1857.2,948.5 "/>
<g>
	<circle class="st7" cx="1824.5" cy="871.5" r="12.2"/>
	<ellipse class="st7" cx="1844.8" cy="866.5" rx="15.5" ry="17.8"/>
	<ellipse class="st7" cx="1866.2" cy="871.8" rx="11.8" ry="12.5"/>
	<ellipse class="st7" cx="1812.1" cy="877.7" rx="6.5" ry="5.9"/>
	<polygon class="st7" points="1811.9,883.7 1866.2,884.3 1843.8,866.5 	"/>
</g>
<rect x="1297.5" y="850.1" class="st5" width="104.9" height="104.9"/>
<ellipse class="st5" cx="1350.2" cy="954.5" rx="17.7" ry="21.8"/>
<ellipse class="st10" cx="1350.2" cy="849.6" rx="17.7" ry="21.8"/>
<ellipse class="st5" cx="1401.8" cy="902.9" rx="21.8" ry="17.7"/>
<ellipse class="st5" cx="1297" cy="902.9" rx="21.8" ry="17.7"/>
<polygon class="st5" points="2292.4,852.7 2344.6,900.3 2274.9,890.1 "/>
<line class="st11" x1="2292.6" y1="853.2" x2="2244.7" y2="954.3"/>
<polygon class="st5" points="2232.6,852.7 2180.5,900.3 2250.1,890.1 "/>
<line class="st11" x1="2232.5" y1="853.2" x2="2281.8" y2="954.3"/>
<text transform="matrix(1 0 0 1 1578.9548 642.4055)" style="fill:#0A0F14; font-family:'Raleway-Bold'; font-size:116px;">interests</text>
<text transform="matrix(1 0 0 1 2595.7698 -53.655)" class="st3" style="font-family:'Raleway'; font-size:40px;">HTML/CSS</text>
<text transform="matrix(1 0 0 1 2595.7695 67.3283)" class="st3" style="font-family:'Raleway'; font-size:40px;">JAVA</text>
<text transform="matrix(1 0 0 1 2595.7695 187.3402)" class="st3" style="font-family:'Raleway'; font-size:40px;">JAVASCRIPT</text>
<text transform="matrix(1 0 0 1 2595.7693 298.3513)" class="st3" style="font-family:'Raleway'; font-size:40px;">JQUERY</text>
<rect x="2595.8" y="-33.7" class="st5" width="378.6" height="37.6"/>
<rect x="2595.8" y="90.9" class="st5" width="378.6" height="37.6"/>
<rect x="2595.8" y="211.2" class="st5" width="378.6" height="37.6"/>
<rect x="2595.8" y="317.7" class="st5" width="378.6" height="37.6"/>
<rect x="-415.5" y="-1353.5" class="st0" width="1280" height="800"/>
<rect x="-1232.9" y="-1010" class="st2" width="108" height="207.1"/>
<rect x="-1178.5" y="-1064.6" class="st2" width="53.6" height="55.8"/>
<polygon class="st3" points="-1257.3,-763.1 -1415.3,-763.1 -1415.3,-1030.2 -1350.6,-1181.1 -1257.3,-1181.1 "/>
<polygon class="st3" points="-1026.3,-761.3 -893.6,-761.3 -893.6,-926.6 -960,-1019.9 -1026.3,-1019.9 "/>
<rect x="-859.9" y="-1100.3" class="st6" width="176.4" height="338.3"/>
<polygon class="st5" points="-496.1,-761.7 -671.1,-761.7 -671.1,-976 -627.4,-1036.4 -539.2,-1036.7 -496.1,-976.6 "/>
<polygon class="st6" points="-698.1,-1092.5 -712.7,-1092.5 -705.4,-1167 -698.1,-1241.4 -690.9,-1167 -683.6,-1092.5 "/>
<rect x="-872.4" y="-1031.5" class="st6" width="201.2" height="269.6"/>
<rect x="-829.5" y="-1100.3" class="st4" width="116.8" height="120.8"/>
<rect x="-812.1" y="-1005.8" class="st6" width="80.8" height="243.8"/>
<rect x="-791.3" y="-1027.3" class="st6" width="40.4" height="265.4"/>
<rect x="-1146.9" y="-942.3" class="st5" width="108" height="103.5"/>
<rect x="-1123.8" y="-965.6" class="st5" width="61.7" height="25.1"/>
<polygon class="st2" points="-1156.2,-1060.5 -1151.6,-1199 -1146.8,-1060.5 "/>
<g>
	<circle class="st2" cx="-965.3" cy="-1174" r="33.6"/>
	<ellipse class="st2" cx="-909.3" cy="-1187.6" rx="42.8" ry="49.1"/>
	<ellipse class="st2" cx="-850.3" cy="-1173.1" rx="32.6" ry="34.5"/>
	<ellipse class="st2" cx="-999.4" cy="-1156.7" rx="17.8" ry="16.4"/>
	<polygon class="st2" points="-1000,-1140.4 -850.3,-1138.6 -912.1,-1187.6 	"/>
</g>
<rect x="-1171.6" y="-917" class="st5" width="157.3" height="103.5"/>
<rect x="-1232.9" y="-841.4" class="st7" width="387.8" height="79.7"/>
<rect x="-1299.1" y="-917" class="st4" width="108" height="155.3"/>
<rect x="-1475.1" y="-842.7" class="st7" width="176" height="79.7"/>
<rect x="-1391" y="-1020.9" class="st8" width="22.9" height="22.9"/>
<rect x="-1296.4" y="-1020.9" class="st8" width="22.9" height="22.9"/>
<rect x="-1343.7" y="-1020.9" class="st8" width="22.9" height="22.9"/>
<rect x="-1391" y="-984.5" class="st2" width="22.9" height="22.9"/>
<rect x="-1296.4" y="-984.5" class="st8" width="22.9" height="22.9"/>
<rect x="-1343.7" y="-984.5" class="st8" width="22.9" height="22.9"/>
<rect x="-1391" y="-948.2" class="st8" width="22.9" height="22.9"/>
<rect x="-1296.4" y="-948.2" class="st8" width="22.9" height="22.9"/>
<rect x="-1343.7" y="-948.2" class="st2" width="22.9" height="22.9"/>
<rect x="-1391" y="-911.8" class="st8" width="22.9" height="22.9"/>
<rect x="-1343.7" y="-911.8" class="st8" width="22.9" height="22.9"/>
<rect x="-1391" y="-875.4" class="st2" width="22.9" height="22.9"/>
<rect x="-1343.7" y="-875.4" class="st8" width="22.9" height="22.9"/>
<rect x="-1296.4" y="-1057.3" class="st8" width="22.9" height="22.9"/>
<rect x="-1343.7" y="-1057.3" class="st8" width="22.9" height="22.9"/>
<rect x="-1296.4" y="-1166.4" class="st8" width="22.9" height="22.9"/>
<rect x="-1296.4" y="-1130.1" class="st8" width="22.9" height="22.9"/>
<rect x="-1343.7" y="-1130.1" class="st2" width="22.9" height="22.9"/>
<rect x="-1296.4" y="-1093.7" class="st8" width="22.9" height="22.9"/>
<rect x="-1343.7" y="-1093.7" class="st8" width="22.9" height="22.9"/>
<rect x="-1391" y="-1057.3" class="st2" width="22.9" height="22.9"/>
<rect x="-801.9" y="-960.7" class="st4" width="7" height="197.7"/>
<rect x="-791.2" y="-960.7" class="st4" width="7" height="197.7"/>
<rect x="-780.6" y="-960.7" class="st4" width="7" height="197.7"/>
<rect x="-769.9" y="-960.7" class="st4" width="7" height="197.7"/>
<rect x="-759.3" y="-960.7" class="st4" width="7" height="197.7"/>
<rect x="-748.6" y="-960.7" class="st4" width="7" height="197.7"/>
<rect x="-626.3" y="-954.4" class="st2" width="7" height="192.4"/>
<rect x="-615.7" y="-954.4" class="st2" width="7" height="192.4"/>
<rect x="-605" y="-954.4" class="st2" width="7" height="192.4"/>
<rect x="-594.4" y="-954.4" class="st2" width="7" height="192.4"/>
<rect x="-583.7" y="-954.4" class="st2" width="7" height="192.4"/>
<rect x="-573.1" y="-954.4" class="st2" width="7" height="192.4"/>
<rect x="-562.4" y="-954.4" class="st2" width="7" height="192.4"/>
<rect x="-551.8" y="-954.4" class="st2" width="7" height="192.4"/>
<rect x="-668.8" y="-954.4" class="st2" width="7" height="192.4"/>
<rect x="-658.1" y="-954.4" class="st2" width="7" height="192.4"/>
<rect x="-647.5" y="-954.4" class="st2" width="7" height="192.4"/>
<rect x="-636.8" y="-954.4" class="st2" width="7" height="192.4"/>
<rect x="-541.1" y="-954.4" class="st2" width="7" height="192.4"/>
<rect x="-530.5" y="-954.4" class="st2" width="7" height="192.4"/>
<rect x="-519.9" y="-954.4" class="st2" width="7" height="192.4"/>
<rect x="-509.2" y="-954.4" class="st2" width="7" height="192.4"/>
<rect x="-693.5" y="-888.6" class="st3" width="61.7" height="25.1"/>
<rect x="-716.7" y="-865.2" class="st3" width="108" height="103.5"/>
<rect x="-699.5" y="-828.5" class="st8" width="14.4" height="14.4"/>
<rect x="-640.2" y="-828.5" class="st8" width="14.4" height="14.4"/>
<rect x="-669.8" y="-828.5" class="st8" width="14.4" height="14.4"/>
<rect x="-699.5" y="-805.6" class="st2" width="14.4" height="14.4"/>
<rect x="-640.2" y="-805.6" class="st8" width="14.4" height="14.4"/>
<rect x="-669.8" y="-805.6" class="st8" width="14.4" height="14.4"/>
<rect x="-640.2" y="-851.3" class="st8" width="14.4" height="14.4"/>
<rect x="-669.8" y="-851.3" class="st8" width="14.4" height="14.4"/>
<rect x="-699.5" y="-851.3" class="st2" width="14.4" height="14.4"/>
<rect x="-655" y="-882.4" class="st2" width="14.4" height="14.4"/>
<rect x="-684.7" y="-882.4" class="st2" width="14.4" height="14.4"/>
<rect x="-1171.1" y="-791.7" class="st3" width="308.6" height="22.9"/>
<rect x="-1076.5" y="-828.1" class="st3" width="22.9" height="22.9"/>
<rect x="-1123.8" y="-828.1" class="st3" width="22.9" height="22.9"/>
<rect x="-1171.1" y="-828.1" class="st3" width="22.9" height="22.9"/>
<rect x="-982" y="-828.1" class="st3" width="22.9" height="22.9"/>
<rect x="-1029.2" y="-828.1" class="st3" width="22.9" height="22.9"/>
<rect x="-934.7" y="-828.1" class="st3" width="22.9" height="22.9"/>
<rect x="-887.4" y="-828.1" class="st3" width="22.9" height="22.9"/>
<rect x="-1449.7" y="-791.7" class="st3" width="117.4" height="22.9"/>
<rect x="-1449.7" y="-828.1" class="st3" width="22.9" height="22.9"/>
<rect x="-1402.4" y="-828.1" class="st3" width="22.9" height="22.9"/>
<rect x="-1355.2" y="-828.1" class="st3" width="22.9" height="22.9"/>
<rect x="-1010.5" y="-980.3" class="st8" width="14.4" height="14.4"/>
<rect x="-980.8" y="-980.3" class="st8" width="14.4" height="14.4"/>
<rect x="-1010.5" y="-957.4" class="st2" width="14.4" height="14.4"/>
<rect x="-980.8" y="-957.4" class="st8" width="14.4" height="14.4"/>
<rect x="-980.8" y="-1003.1" class="st8" width="14.4" height="14.4"/>
<rect x="-1010.5" y="-1003.1" class="st2" width="14.4" height="14.4"/>
<rect x="-1010.5" y="-934.6" class="st2" width="14.4" height="14.4"/>
<rect x="-980.8" y="-934.6" class="st8" width="14.4" height="14.4"/>
<rect x="-1010.5" y="-911.1" class="st8" width="14.4" height="14.4"/>
<rect x="-980.8" y="-911.1" class="st8" width="14.4" height="14.4"/>
<rect x="-1010.5" y="-888.3" class="st2" width="14.4" height="14.4"/>
<rect x="-980.8" y="-888.3" class="st8" width="14.4" height="14.4"/>
<rect x="-1010.5" y="-865.5" class="st2" width="14.4" height="14.4"/>
<rect x="-980.8" y="-865.5" class="st8" width="14.4" height="14.4"/>
<rect x="-951.1" y="-934.6" class="st8" width="39.3" height="14.4"/>
<rect x="-951.1" y="-911.1" class="st2" width="39.3" height="14.4"/>
<rect x="-951.1" y="-957.4" class="st8" width="14.4" height="14.4"/>
<rect x="-951.1" y="-888.3" class="st8" width="39.3" height="14.4"/>
<rect x="-951.1" y="-865.5" class="st8" width="39.3" height="14.4"/>
<rect x="-1232.9" y="-830.2" class="st2" width="22.9" height="22.9"/>
<rect x="-1280.2" y="-830.2" class="st5" width="22.9" height="22.9"/>
<rect x="-1232.9" y="-793.8" class="st5" width="22.9" height="22.9"/>
<rect x="-1280.2" y="-793.8" class="st2" width="22.9" height="22.9"/>
<rect x="-1232.9" y="-866.6" class="st5" width="22.9" height="22.9"/>
<rect x="-1280.2" y="-866.6" class="st2" width="22.9" height="22.9"/>
<rect x="-1232.9" y="-903" class="st2" width="22.9" height="22.9"/>
<rect x="-1280.2" y="-903" class="st2" width="22.9" height="22.9"/>
<rect x="-1158.6" y="-853.3" class="st2" width="131.3" height="7"/>
<rect x="-1158.6" y="-863.9" class="st2" width="131.3" height="7"/>
<rect x="-1158.6" y="-874.6" class="st2" width="131.3" height="7"/>
<rect x="-1158.6" y="-885.2" class="st2" width="131.3" height="7"/>
<rect x="-1158.6" y="-895.9" class="st2" width="131.3" height="7"/>
<rect x="-1158.6" y="-906.5" class="st2" width="131.3" height="7"/>
<circle class="st7" cx="-496.3" cy="-1181.1" r="50"/>
<polygon class="st6" points="-845.2,-1092.5 -859.7,-1092.5 -852.4,-1167 -845.2,-1241.4 -837.9,-1167 -830.6,-1092.5 "/>
<text transform="matrix(1 0 0 1 -823.6957 -1578.58)" class="st3" style="font-family:'Raleway-Bold'; font-size:116px;">GRACE KAMPA</text>
<text transform="matrix(1 0 0 1 -811.6957 -1584.5801)" class="st2" style="font-family:'Raleway-Bold'; font-size:116px;">GRACE KAMPA</text>
<rect x="1182.4" y="-309.1" class="st4" width="1280" height="800"/>
<rect x="1311.2" y="-58.4" class="st12" width="1028.6" height="121.2"/>
<text transform="matrix(1 0 0 1 1692.1866 -148.6039)" class="st6" style="font-family:'Raleway-Bold'; font-size:116px;">skills</text>
<rect x="1311.2" y="-72.7" class="st5" width="1028.6" height="121.2"/>
<text transform="matrix(1 0 0 1 1338.1759 2.1782)" class="st3" style="font-family:'Raleway-Bold'; font-size:40px;">languages</text>
<rect x="2529.5" y="-1113" class="st5" width="1280" height="800"/>
<rect x="2527.5" y="495.1" class="st3" width="1280" height="800"/>
<g>
	<text transform="matrix(1 0 0 1 3005.5032 -969.5674)" class="st2" style="font-family:'Raleway-Bold'; font-size:116px;">about</text>
</g>
<circle class="st10" cx="2694" cy="904.5" r="92.3"/>
<circle class="st10" cx="3149.8" cy="904.5" r="92.3"/>
<text transform="matrix(1 0 0 1 2592.6221 1073.8953)" class="st7" style="font-family:'Raleway'; font-size:61.5534px;">puzzles</text>
<circle class="st10" cx="3605.7" cy="904.5" r="92.3"/>
<text transform="matrix(1 0 0 1 3071.439 1073.8953)" class="st7" style="font-family:'Raleway'; font-size:61.5534px;">hiking</text>
<text transform="matrix(1 0 0 1 3458.0474 1073.8953)" class="st7" style="font-family:'Raleway'; font-size:61.5534px;">mud races</text>
<polygon class="st4" points="3091.6,950.5 3132.3,858.7 3171.5,950.5 "/>
<polygon class="st6" points="3147.1,950.5 3173.8,904.6 3201.2,950.5 "/>
<g>
	<circle class="st7" cx="3168.5" cy="873.5" r="12.2"/>
	<ellipse class="st7" cx="3188.8" cy="868.5" rx="15.5" ry="17.8"/>
	<ellipse class="st7" cx="3210.2" cy="873.8" rx="11.8" ry="12.5"/>
	<ellipse class="st7" cx="3156.1" cy="879.7" rx="6.5" ry="5.9"/>
	<polygon class="st7" points="3155.9,885.7 3210.2,886.3 3187.8,868.5 	"/>
</g>
<rect x="2641.5" y="852.1" class="st5" width="104.9" height="104.9"/>
<ellipse class="st5" cx="2694.2" cy="956.5" rx="17.7" ry="21.8"/>
<ellipse class="st10" cx="2694.2" cy="851.6" rx="17.7" ry="21.8"/>
<ellipse class="st5" cx="2745.8" cy="904.9" rx="21.8" ry="17.7"/>
<ellipse class="st5" cx="2641" cy="904.9" rx="21.8" ry="17.7"/>
<polygon class="st5" points="3636.4,854.7 3688.6,902.3 3618.9,892.1 "/>
<line class="st11" x1="3636.6" y1="855.2" x2="3588.7" y2="956.3"/>
<polygon class="st5" points="3576.6,854.7 3524.5,902.3 3594.1,892.1 "/>
<line class="st11" x1="3576.5" y1="855.2" x2="3625.8" y2="956.3"/>
<g>
	<text transform="matrix(1 0 0 1 2922.9548 644.4055)" class="st2" style="font-family:'Raleway-Bold'; font-size:116px;">interests</text>
</g>
<polygon class="st13" points="2267.7,11.2 2301.7,-20.5 2284.7,-4.6 2267.7,11.2 2250.7,-4.6 2233.7,-20.5 "/>
<rect x="1311.2" y="125.6" class="st12" width="1028.6" height="326.9"/>
<rect x="1311.2" y="125.3" class="st5" width="1028.6" height="310.7"/>
<text transform="matrix(1 0 0 1 1338.1759 200.1782)" class="st3" style="font-family:'Raleway-Bold'; font-size:40px;">languages</text>
<polygon class="st13" points="2267.7,177.5 2301.7,209.2 2284.7,193.4 2267.7,177.5 2250.7,193.4 2233.7,209.2 "/>
<text transform="matrix(1 0 0 1 1337.1759 317.7406)"><tspan x="0" y="0" style="fill:#F2F2F2; font-family:'Raleway-Bold'; font-size:40px;">proficient in: </tspan><tspan x="246.8" y="0" style="fill:#F2F2F2; font-family:'Raleway'; font-size:40px;">Java, HTML/CSS, JavaScript</tspan></text>
<text transform="matrix(1 0 0 1 1337.1759 400.7406)"><tspan x="0" y="0" style="fill:#F2F2F2; font-family:'Raleway-Bold'; font-size:40px;">familiar with: </tspan><tspan x="259.2" y="0" style="fill:#F2F2F2; font-family:'Raleway'; font-size:40px;">jQuery, C, Python</tspan></text>
<polygon class="st13" points="36.7,5.5 70.7,37.2 53.7,21.4 36.7,5.5 19.7,21.4 2.7,37.2 "/>
</svg>
